<?xml version="1.0" encoding="UTF-8"?>
<svg id="Layer_1" data-name="Layer 1" xmlns="http://www.w3.org/2000/svg" viewBox="0 0 2047.38 1152">
  <defs>
    <style>
      .cls-1 {
        fill: #fff;
      }
    </style>
  </defs>
  <path d="M0,834.01V0h2047.38v871.21c-6.43,3.6-9.32,11.56-14.01,16.23-3.04,3.03-7.97,2.29-7.39,8.88l-1.84-.45c3.18-7.87,8.11-13.92,8.35-22.79-3.66,1.89-4.04,6.83-6.48,9.78-3.82,4.61-12.8,7.27-13.97,14.39l-1.87-2.32,1.88-.92-3.52-4.45c1.31-2.02.73-5.51,1.36-7.18,1.01-2.73,5.49-5.2,4.49-8.36-4,1.55-5.72,11.29-7.22,12.77-.55.54-2.29.35-3.5,1.59-1.8,1.83-4.2,7.51-4.63,7.94-.6.61-2.08.43-1.84-1.37.73-5.5,8.44-11.12,11.14-15.84,0-.82-1.82-.58-2.24-.38-1.7.83-6.84,9.11-10.26,10.2l-7.95,13.89c1.76-10.12,9.1-19.39,11.14-29.75-2.44.58-16.38,21.27-17.65,19.52l2.78-10.22-6.5,2.78,1.94-7.96-1.94-1.79c3.46-2.79,3.56-10.09,8.37-10.7-1.85,3.59-5.51,7.45-5.57,12.08,3.63-2.03,4.02-6.42,5.61-9.53.48-.95,1.74-.63,1.8-.71,1.24-1.51-.55-2.01-1.84-1.84,3.53-6.87,6.52-14.3,12.08-20l-.45-1.38-13.79,20.14c-5.44,2.43-6.28,10.49-9.52,14.19-1.41,1.61-4.05,2.3-5.51,3.79-5.3,5.38-7.2,11.67-9.78,18.59-1.86-.25-.86-4.58-.68-5.8.25-1.73,1.06-4.89,1.68-6.52.4-1.05,5.29-2.81-1.01-3.96.97-7.98,7.78-13.82,7.44-21.83l-22.56,32.28-3.45,1.18c-.67-8.39,7.96-13.76,9.28-21.38-6.13,2.28-12.69,23.64-16.28,25.1s.1-8.36.18-8.95c.15-1.2-.74-2.64-.44-4.25,1.94-10.57,7.41-20.14,10.03-30.48l-6.37,9.89-2.93,8.7c-1.63.03-1.98.52-1.79-1.32.64-6.23,7.14-10.19-.05-15.41-.76,5.2-11.22,32.79-14.43,34.39-2.01,1-1.08-1.41-1.1-2.08-.21-10.61,4.89-21.11,7.14-31.38l-9.45,18.89c-.66.94-5.67,18.64-7.27,16.43-1.99-6.49,6.61-13.74,6.48-19.12-.06-2.34-1.51-1.79-2.77-2.26,1.66-4.27,2.85-8.78,4.64-13.02l-6.49,12.57c-.04.92,1.33.26,1.85.45-1.17,3.01-1.82,8.26-5.57,8.36-1.61-1.63,4.87-5.12.47-5.57-.66,1.63-9.16,13.74-10.7,12.07l14.73-51.76-1.71-1.23c-2.09,11.66-6.84,22.57-10.52,33.73-.56,1.69-.13,3.49-.82,5.52-2.33,6.95-4.91,13.94-8.66,20.25-.19-8.64,2.88-17.66,7.9-24.65.66-1.68-1.31-1.74-2.32-1.4-1.37.46-9.87,22.72-13.42,25.65-1.26,1.04-2,1.65-3.78,1.33-.06-6.48,13.04-11.18,1.81-13.54,2.38-6.48,3.86-13.43,6.1-19.92.62-1.81,2.95-3.75,3.08-5.28.08-.85-2.23-5.31-.77-7.74l-26.97,30.67c-1.41,1.02-1.74,0-1.88-1.39-.41-4.22,2.2-9.15,1.43-13.46-5,6.64.6,22.32-11.63,20.45-1.14-10.43,8.02-18.59,12.45-27.07,2.52-4.82,4.78-11.7,5.2-17.12.08-1.02.69-3.46-.91-3.23.01,8.85-5.68,16.07-8.45,24.13l-1.77-.88c.27,5.12-2.49,5.12-4.19,7.43-1.31,1.77-.98,4.71-3.25,5.59,2.44-13.16,10.43-25.92,13.72-38.81.23-.89,1.03-4.14-.7-3.96l-16.71,43.23-2.82-.47c.16,5.98-3.67,10.56-5.6,15.82-2.32,2.31-1.85-4.69-1.67-5.16.34-.84,2.07.2,1.68-1.34l-3.7-.46c4.08-7.79,10.14-12.27,12.06-21.45l-1.92-.98c.35-1.84.93-3.54,1.04-5.45.06-1,.63-4.39-.96-4.21-2.49,6.57-.5,15.74-4.58,21.69-.69,1-4.47,1.58-6.58,4.1-1,1.2-.45,4.48-2.79,2.57,1.22-5.05,7.61-8.26,6.04-13.49-2.17,1.41-2.94,4.63-4.51,6.19-5.41,5.36-11.11,9.51-15.53,14.68-2.18,2.54-3.55,5.63-6,7.95l6.05-13c-4.83.38-8.02,4.29-11.15,7.43,1.07-3.32,2.93-7.64,4.79-10.54,2.39-3.72,10.67-11.74,11.92-15.05.62-1.64-.82-1.59-1.83-1.37l-7.47,12.07-1.84-2.78c-1.48-.31-1.92.46-2.79,1.39-4.16,4.46-8.45,17.36-12.98,23.04-.66.83-1.84,1.23-2.82,1.6,1.89-14.32,13.34-25.14,16.74-38.58l-10.2,16.57c-3.3.66-3.63,3.28-6.08,5.26-3.27-2.74,1.26-.8-.21-3.52l1.61-2.03-4.55-1.47,3.67-12.93-1.82-1.73c7.9-14.01,17.61-27.03,27.77-39.44l10.25-15.1c-18.88,19.67-33.7,43.16-49.25,65.56h-2.79s5.57-9.77,5.57-9.77l-3.57.15c-5.28,11.23-11.06,22.25-18.28,32.38.12-3.62,1.06-9.4,2.12-12.76,2.93-9.28,15.27-19.63,18.8-29.07l-15.35,14.85c-1.15,1.23-4.84,7-5.25,7.27-.28.18-3.32-.76-4.07-.58-.68.17.11,2.58-2.29,1.69-1.41-5.32,4.57-8.2,4.18-13.01-3.93,3.42-6.89,6.8-7.94,12.08-2.27-1.24-4.21-1.26-6.47,0,.31-5.49,2.79-9.87,4.64-14.87-2.44-2.53-8.36,14.05-12.08,13.01l17.65-40.91c-6.04,6.6-8.02,16.77-13.19,24.45-1.84,2.73-3.84,3.98-5.25,5.91-3.09,4.23-4.24,10.79-10.36,10.55l3.25-12.08c-2.36,3.44-4.55,7.63-6.26,11.42-.59,1.3-.52,3.8-.88,4.21-.73.84-4.98-.1-4.51,2.94h-1.84c.55-3.06,2.68-2.58,4.64-4.17l-2.78.47,1.85-5.57-6.5,2.79-.05-2.73-3.68-.08c5.98-9.85-5.56-6.43-7.45,0l-3.12-1.8c-3.29,3.2-5.96,5.79-10.81,5.51.61-3.05,3.57-1.75,4.59-2.35,2.97-1.72,6.98-5.76,9.82-7.88,2.15-1.61,5.3-2.22,6.97-5.12-1.29-.11-6.82.59-8.06,1.15-2.44,1.1-3.82,4.04-5.95,5.3-1.84,1.08-4.23,1.19-6.15,2.22-7.8,4.21-15.65,8.23-23.53,12.26l2.79-4.18-2.79-.92c2.41-5,4.55-10.22,7.24-15.07,1.81-3.25,6.31-5.95,5.3-10.5-4.01,4.96-8.1,10.09-11.45,15.51-2.19,3.54-9.45,19.2-11.34,20.34-1.59.96-3.34-.88-4.63-.12-1.99,1.17-2.76,7.52-6.98,6.86l-1.85-5.4c-2.06,1.37-2.57,3.18-2.35,5.58-3.81-2.52-4.11,1.47-7.43,1.85l5.11-13.01c-5.05,4.33-4.87,12.4-11.17,15.8-1.29-8.19,3.89-14.89,9.85-19.9,1.38-1.16,5.99-3.26,6.23-3.6,1.93-2.82,4.89-7.2,8.89-10.57.68-.57,3.3-.7,3.38-1.72.3-3.86-9.84,2.61-10.67,3.26-7.43,5.72-19.84,19.98-27.47,27.38-.81.78-5.96,8.68-7.39,7.01-1.25-3.89,1.66-3.61,2.25-4.61.44-.74-.28-2.35.21-3.52,5.32-12.63,15.56-20.08,22.63-31.39.2-.63-.88-.67-1.38-.45-2.09.95-10.86,13.51-14.44,15.33-1.01,3.94-5.36,5.78-7.27,8.49-3.52,5.01-6.13,14.05-8.54,19.87l-1.83-.44,8.35-41.39c-2.37-.42-1.67.37-2.27,1.86-1.75,4.37-2.45,10.37-4.21,15.36-2.12,5.99-5.13,12.38-7.93,18.11-5.69,1.32.86-16.08,1.18-17.42.24-1,.75-3.35-.24-3.96-4.75,5.82-5.25,13.89-8.85,20.44l-2.78-2.77-1.86,4.64c.71-7.29,5.12-13.6,8.36-19.99l-1.93-.97.99-3.2c-5.33,2.41-3.32,10.67-8.35,12.09-1.35-1.74,5.16-9.57,1.39-9.28-.98.08-8.4,14.84-11.61,15.79,3.41-17.83,11.73-35.65,14.99-53.42.27-1.46,1.21-2.11-.59-3.3-3.72,10.57-7.46,21.37-10.74,32.09-2.34,7.66-3.57,17.11-6.65,24.92-.59,1.51-4.07,2.18-3.53,5.27-1.7.21-.8-1.98-.67-2.99.79-5.96,2.49-11.9,4.97-17.35.86-1.89,2.53-3.15,3.45-4.77.11-.2,1.31-3.59-.76-2.77-9.07,8.47-7.38,21.61-18.06,28.67-.29.19-2.01,3.31-.99-.28,1.19-4.2,4.44-7.34,7.42-10.28l-1.43-2.29-3.21.9c-1.38-1.61,2.67-12.27,3.89-14.26.69-1.13,6.09-4.23.76-2.46-1-6.15,5.92-7.21,5.57-13.02l-5.57,2.32,6.49-11.63-31.15,34.39c-2.06.37-1.38-.82-1.29-2.21.38-5.8,3.07-9.55,2.69-16.38-1.28,4.43-3.38,9.59-4.42,14.65-.5,2.44.31,5.7-.68,7.69-.81,1.63-6.9,4.48-8.79,2.69-.57-.76,1.65-9.71,2.32-11.01.59-1.14,2.06-1.84,2.67-2.91.74-1.3,8.23-14.66,8.88-13.89.06.92-.04,1.86,0,2.79,1.28-4.45,3.33-9.62,4.35-14.71.82-4.07,1.84-9.61,2.15-13.66.08-1.03.75-4.32-.91-4.16-.99,8.57-2.1,19.91-6.66,27.29-1.09,1.76-3,2.8-3.99,4.38-2.52,4.04-4.04,8.79-7.5,12.02l-.48-1.4,14.43-42.29c-1.56,2.42-3.99,5.5-4.97,8.13-4.24,11.44-8.19,24.01-11.35,35.81-.1.39-4.5,4.47-5.39,5.94-2.12,3.51-3.79,8.61-5.74,12.4l-1.43-1.9.51-4.6-2.77-.45c3.67-7.69,9.57-13.6,13.07-21.44.74-1.66.02-1.54-.07-3.22-4.91,2.15-5.45,12.88-8.64,14.58-1.05.56-2.72-.03-3.3.47-.31.27-2.42,6.13-4.78,6.33l7.4-14.2c.77-1.17,4.22-1.77,2.36-3.46-4.02,1.86-5.53,6.21-8.36,9.3-7.78,8.5-18.26,16.07-22.8,26.95-1.93.11-.59-2.63-.19-3.45,3.38-7.03,8.87-12.79,12.29-19.78l-7.88,7.56c-5.06-.61-3.79,4.21-7.92,6.38,5.92-13.39,15.92-24.03,23.04-36.92.45-.82,2.06-2.32.66-3.05-1.55,1.54-17.08,26.9-19.06,24.17l-.02-3.72c-.98-1.37-13.43,27.57-17.65,27.89.82-3.99,1.99-8.02,3.54-11.79,3.9-9.51,11.14-17.6,14.1-27.26-.96,1.01-2.94,2.54-3.68,3.49-1.83,2.37-4.17,8.21-5.55,9.87-.75.9-2.11.26-2.91,1.19-1.57,1.83-2.81,6.83-5.06,8.69l1.4-7.43-3.71,1.85c-.3-5.61-.61-11.3,4.68-14.52l-.98-3.14c-.94-.67-3.54,6.11-3.69,2.34l37.17-52.1c.38-1.16-.23-1.86-1.37-1.37-2.31.99-18.56,22.37-21.32,26.11-9.37,12.71-17.55,26.31-27,39.01-.79,1.06-1.32,2.36-1.45,3.67-1.85.17-.55-2.7-.28-3.54,1.56-4.79,7.87-10.87,4.48-15.03-1.03.04-6.91,15.95-9.74,18.13-.7.53-1.01.57-1.87.44-.06-2.11-.18-4.29.62-6.31,1.49-3.79,8.47-12.86,11.91-16.94,1.19-1.4,9.98-8.93,8.83-10.22-11.04,7.63-18.29,19.62-30.22,26.02l-.44-1.84c-3.77-1.03-3.95,3.85-6.58,5.13-1.7.82-5.23-.58-7.13.69-1.12.74-3.44,6.55-6.25,8.16-2.03,1.17-4.4,1.02-6.54,1.83-1.84-6.77,10.51-10.5,15.63-12.32,6.69-2.37,8.3-5.12,14.12-9.1,1.7-1.16,5.51-1.42,6.97-4.17l-8.31.95-10.8,7.84-2.25-1.8c-3.35,7.25-15.36,8.51-21.87,12.99-1.95-1.25-.82-1.53-.76-2.57.23-4.14,1.87-7.57,3.67-11.24,2.63-5.37,8.47-10.06,8.26-15.92-4.47,6.62-9.75,12.74-13.88,19.6-1.99,3.3-7.22,17.9-11.19,16.65-1.35-.42-.81-3-2.35-2.78-.41,4.28-3.48,9.64-8.38,9.28,3.92-13.08-6.03,2.53-11.16,2.79l6.05-13.93c-5.18,4.19-4.55,13.86-11.62,15.8-.57-8.22,4.09-15.05,10.3-19.91,2.21-1.73,5.01-2.36,6.96-4.2,2.08-1.96,2.32-4.68,4.04-6.21,1.23-1.09,5.9-3.87,7.52-4.1.98-2.73-3.89-2.6-3.71-3.23l6.04-11.63c-3.28,3.28-5.81,7.37-8.29,11.24-7.41,11.59-21.71,22.77-32.06,33.02-1.92,1.9-3.69,6.29-6.16,6.85-1.37.31-1.64-.03-1.39-1.39.54-2.97,8.2-8.27,10.24-11.15l-1.69-.57.31-2.68-6.52,7.43-.45-1.37,23.23-28.85-3.78.87-19,21.91c-1.9-1.18,10.17-14.28,4.65-13.92-1.52.1-13.37,23.46-18.12,24.16-1.93-2.55,11.68-22,14.09-25.41s5.57-6.33,7.85-9.81c.52-.79,2.28-2.07.83-2.89-2.66,4.08-6.71,7.02-9.75,10.71-8.1,9.83-14.71,22.08-25.37,29.25-1.17.79-.67,1.7-.69,2.8-1.8.17-.82-2.93-.5-3.76,1.21-3.1,4.82-5.6,5.17-9.26l2.77.94c1.07-2.94-2.02-2.4-1.95-4.14.11-2.57,2.67-4.64,1.49-7.01-3.33,3.35-4.88,8.05-7.93,11.59s-7.51,5.99-10.69,9.76c-1.41,1.67-1.67,3.89-3.22,4.67,1.95-4.33-2.03-4.84-2.61-8.67,2.91-5.73,5.9-11.59,8.61-17.4.41-.89,1.36-2.89-.42-2.74-.29,3.54-4.85,6.99-5.95,9.27-.82,1.72-.73,8.69-3.31,9.76-1.07.44-3.8-1.08-5.62,1.42-2.07-2.69,8.67-8.16,6.04-12.08-6.84,5.1-7.34,14.7-14.41,19.52,1.09-9.1,8.4-16.19,8.36-25.56l-7.43,7.9-.72-2.6c1.66-.15,1.91-.28,1.64-2.04l-3.59-1.07-.14-3.07,4.65-13.53-3.25,3.71c-.7.14-.6-.9-.45-1.37.84-2.69,8.2-14.45,10.2-16.77s8.23-5.85,9.31-8.36c2.08-4.85-7.54,5.35-6.48.96.36-1.47,13.42-16.25,15.62-19.71.68-1.06,2.44-3.37-.29-3.08-4.14,6.97-10.73,12.72-15.19,19.21-8.7,12.66-16.67,25.94-25.5,38.66-1.09,1.56-1.81,5.33-3.5,4.87.69-5.44,3.74-10.85,7.41-14.92l-1.85-2.59c.05-1.32-1-.22-1.35.33-3.54,5.54-6.13,13.97-9.62,20.14-2.61,4.62-5.91,8.74-8.54,13.32l-1.46-1.91,5.34-14.22,22.16-30.36c-5.25,4.48-10.62,8.86-15.35,13.93-5.36,5.76-8.7,10.91-12.54,17.68.15-.18,1.18-4.77-.47-4.63-.97.08-2.98,4.7-2.31,5.56.71-.67,2.69-.82,2.78-.93-.26.46-.02,2.2-.72,3.42-2.44,4.22-7.88,13.29-10.7,16.76-.23.28-3.15,2.32-2.51-.18l10.22-17.2c-6.01,1.08-8.96,6.51-13.01,10.22,2.26-9.08,10.51-15.32,14.44-23.21.59-1.18,2.16-3.52.9-4.68l-8.39,11.14-1.37-2.09c.3-1.1-1.71-.82-1.86-.69-.7.64-6.76,14.18-8.56,17.02-1.99,3.14-4.1,7.03-7.25,9.01-1.03-8.11,17.83-33.39,17.63-37.67-.03-.54-1.1-1.83-2.27-.43-5.38,6.42-9.02,18.02-15.83,24.15l1.4-8.36h-3.73c.31-5.11,1.96-9.21,4.66-13.47l-3.71.44v-1.38c9.55-16.41,22.17-30.78,32.19-46.85,1.79-2.87,4.19-6.14,4.98-9.42-7.35,10.61-16.03,20.34-23.62,30.76-9.33,12.82-17.44,26.93-27.5,38.97-1.04-5.24,6.9-10.33,4.34-14.88-.17-.31.45-3-1.55-.92-.19.2-1.12,4.06-1.71,5.28-4.87,9.98-10.02,19.75-15.99,29.11-4.39.47.78-4.56,1.26-6.68,1.43-6.36.65-6.6,4.51-13.13,5.86-9.9,14.62-19.87,22.14-28.52-2.62.9-6.01,3.99-8.04,5.89-4.59,4.29-9.95,10.29-14.25,15.04-1.25,1.38-2.3,4.25-3.3,5.07-2.66,2.19-9.12.92-9.75,6.53-1.63.25-.74-1.1-.65-2.03.13-1.39.42-4.67.71-5.66.08-.28,5.05-4.1-.03-4.38-.23,2.18-1.57,3.51-3.73,3.73l.11,1.76c4.47.51-.98,6.14-.12,9.38-1.33.18-1.47-3.5-1.49-4.34-.04-1.65.76-3.27.56-4.95-2.12,1.6-4.45,3.67-2.78,6.5-3.4.16-3.09-3.4-2.58-5.82l15.59-26.71-28.15,36.94c-2.05,1.84-5.8,0-4.36-1.58.16-.18,1.66-.06,2.27-.95.76-1.1.55-3.03,1.24-4.38,2.53-4.99,5.63-9.9,7.63-15.14-1.95-.16-4.28,3.36-5.01,4.74-2.2,4.14.27,5.2-5.23,5.89l-.92,3.77c-1.24,1.53-1.03-1.11-.93-1.84.63-4.67,3.3-8.53,4.82-12.86l35.16-54.56c-13.57,17.35-26.33,35.99-37.34,55.16-1.24,2.17-5.19,11.98-5.67,12.47-.68.68-4.09.92-4.87,3.03l1.4-6.49-2.96,2.6c-1.65-.76-1.85-.92-1.7,1.1l-2.77-2.77,1.88-.63,6.47-13.33c-2.53.68-4.45,6.33-5.83,7.18-9.79,6.01-12.26,9.81-19.63,18.95-.98,1.22-3.13,5.26-3.37,5.47-2.2,1.9-1.7-2.76-2.13-3.47-.32-.54-2.2.28-1.4-2.35l12.84-14.62-13.94,6.97c3.45-4.4,8.77-8.43,9.29-14.41h-2.78s1.85,1.39,1.85,1.39l-2.8,3.25-1.84-2.77-.95,3.71c-3.51-1.55-.44-2.06,0-3.26,1.77-4.83-6.46,3.78-6.96,4.2-1.4,1.17-4.25.86-4.2,3.71l-2.3-2.77-6.99,5.56c1.04-4.17,5.35-4.73,8.08-6.79.66-.5.98-2.06,2.17-2.91,4.49-3.18,10.22-4.75,15.17-8.1.95-.64,2.91-1.86.17-1.7-4.05,1.77-7.9,3.96-11.93,5.75-1.14.51-2.56-.11-4.04.51-3.06,1.29-6.36,5.7-8.68,6.39-2.99.89-1.17-1.02-4.44,1.23-7.9,5.47-16.38,6.83-23.46,13.06.08-11.42,7.53-18.82,12.44-28,.27-.5,2.65-4.24.12-3.61-3.94,6.47-8.97,12.24-12.95,18.66-2.32,3.74-6.54,14.71-9.34,16.76-1.93,1.42-3.56-.7-5.15.29s-1.99,6.25-6.03,7.06c-2.97.6,1.48-6.53-2.79-5.59-1.65.36-2.25,5.38-3.24,7-1.48,2.43-6.34,5.71-7.94,8.8-1.63-2.76,2.56-4.62,3.19-7.08l-1.7-2.53,5.48-11.77c-5.38,3.95-4.49,14.91-12.08,15.8,1.42-2.98.6-5.83,1.64-9.04,1.34-4.12,11.28-13.77,16.04-14.2l-.95-2.78c4.46-.06,7.06-8.07,12-8.47l.09-2.68-5.57,1.39c2.87-3.35,5.37-7.09,7.9-10.7.53-.75,2.49-1.81.93-2.78l-46.05,52.06-1.86-.47c-.47-7.79,12.31-11.95,13.96-19.04l-2.8.66c.28,3.36-2.16,2.21-2.79,2.75-2.23,1.93-4.62,4.84-6.97,6.81l-.45-1.37,23.23-28.84c-3.88-1.05-5.88,4.52-8.04,6.87-4.13,4.49-8.57,8.78-12.88,13.12l4.93-9.95.2-1.66c-.07-.93-1.21-.57-1.89-.03-.45.35-5.39,7.96-6.36,9.44-1.74,2.64-2.57,4.48-4.62,7.43-1.76,2.54-3.41,8.39-6.67,6.39-.21-1.75.12-3.24.72-4.86,1.77-4.74,12-17.49,15.56-22.56.53-.75,2.49-1.81.94-2.78-5.18,4.83-9.83,10.73-14.39,16.29-5.07,6.18-8.8,14.99-16.75,17.17v-2.77s2.62-.12,2.62-.12c-1.04-4.3,3.27-5.74,3.71-6.53.15-.27-.69-1.77-.52-2.84.52-3.24,1.58-6.04,2.54-9.12-2.51,2.13-4.54,5.32-6.32,8.08-1.07,1.66-1.79,5.09-2.29,5.62-.41.44-5.44,2.88-7.2,4.42s-4.25,3.66-4.66,6.05c-2.57-1.36-5.54-3.22-5.1-6.62,2.87-4.98,5.16-10.24,7.77-15.37.43-.84,1.94-2.46.61-3.11l-19.08,28.81-1.83-.44c1.25-1.54,1.25-3.65,2.09-5.35,2.03-4.09,9.19-10.64,9.97-13.28,1.63-5.53-6.09,4.34-6.45,4.71-1.58,1.59-3.62,2.5-5.1,4.19-4.23,4.83-4.76,12.38-9.81,16.68l12.63-30.59,18.96-27.05c-9.67,8.29-15.44,20.27-23.24,30.22-1.06,1.35-3.29,2.06-4.66,3.7s-4.74,9.12-5.68,9.65l-3.58-1.26,2.76-7.91c-1.82-.09-3.86.79-3.73,2.77-4.33.79.65-6.7,1.53-8.23,2.62-4.53,7.4-8.58,7.78-14.07-2.52-.55-1.58.75-2.3,1.84-2.97,4.55-6.21,9.53-9.33,13.95-2.73,3.86.69-4.78,1.44-6,2.94-4.75,18.8-28.09,21.8-30.26,2.65-1.92,7.32-2.98,9.77-6.05,0-3.86-4.02,2.22-5.57.02l13.93-19.07c-1.31-1.37-19.33,22.25-20.83,24.25-5.76,7.65-11.97,16.47-17.48,24.36-2.5,3.57-7.05,13.27-9.36,15.32-1.33,1.18-2.94-.28-4.79,2.08-3.41,4.35-4.1,10.09-6.58,14.87-2.33.58-1.51-4.14-1.33-5.05.63-3.11,3.28-4.7,1.8-7.97l-1.84.94c-1.15-1.7,7.75-16.93,8.17-20.23.2-1.59-.28-4.71-2.59-3.95-.01,1.17-.17,2.38-.74,3.42-4.28,7.85-10.29,14.86-15.39,21.93-.48.66-7.17,13.71-8.05,7.64-.71-4.93,7.92-14.17,9.84-18.97.59-1.46.93-2.24-1-1.93-.97,1.88-2.79,2.83-3.88,4.46-3.76,5.65-6.64,14.34-10.15,19.63-.77,1.16-1.56,2.23-3.18,1.93,2.61-5.38,1.24-10.63,2.08-16.04.8-5.11,6.8-19.98,9.19-25.22,3.34-7.32,8.97-14.02,11.03-21.96l-15.03,24.47-10.07,26.66c-2.74-1.35.84-5.7,1.39-7.45,1.51-4.77,2.59-9.74,4.05-14.52.4-1.31,1.6-1.26,1.77-1.74.91-2.58-.04-6.11-3.34-4.43l-.59-1.61c-4.71,11.65-7.72,24.97-16.27,34.4,1.08-7.91,2.73-16.54,5.08-24.19,1.02-3.32,3.68-6.93,4.17-9.79.32-1.9.41-2.65-1.81-2.27-4.44,10.72-8.4,21.67-12.68,32.46-1.25,3.14-4.09,2.23-2.21,5.65-2.35.4-2.01-.45-1.91-2.36.15-3.11,4.24-10.92,5.7-14.6.38-.97,2.38-.48,1.69-1.94l-2.67-3.4c-1.56,3.03-3.02,6.78-4.8,9.62-.59.94-1.92,2.87-1.71.16,2.71-8.15,8.87-14.58,11.72-22.7.47-1.32,2.25-1.16-.12-2.87-3.82,4.02-5.07,10.24-7.88,15.1-2.08,3.59-8.08,11.86-11.19,15.08-.7.73-1.87,2.45-2.79.93l15.81-55.31-21.39,61.36c-1.76.19-.74-1.95-.65-2.97.7-7.6,2.48-13.29,5.96-20.05.41-.8,4.42-2.7,1.22-3.93.4,2.39-2.07,1.48-2.86,2.45-4.64,5.67-6.5,17.02-11.63,23.51-1.11,1.4-3.01,4-5.06,2.38-.57-3.5,9.33-10.55,7.44-12.54l-3.48.75-2.09-1.25,4.86-13.29,3.49-2.5-2.76,1.41c-.96-5.03,5.48-9.21,6.49-12.57,1.14-3.8-4.88,1.52-5.57.94l5.58-11.61-31.14,35.32c-1.89-5.86,1.79-11.51,2.32-17.21.09-1,.66-3.48-.91-3.23-1.1,5.96-2.83,11.79-4.26,17.68-.6,2.45.73,4.52-1.63,7.13-3.16,3.49-4.48.82-8.06.27.74-11.73,11.23-19.42,15.85-29.21,3.24-6.87,4.32-17.11,4.59-24.68l-6.77,23.46-12.29,17.44,13.5-40.43-.47-1.4c-.57.4-.88.97-1.26,1.53-5.31,7.78-9.44,28.08-13.35,37.82-.66,1.63-4.9,2.87-3.52,7.14l-3.71-.92c2.03,4.42-.87,7.83-3.1,11.19-.42.64.73,3-3.4,2.75.4-6.33-1.6-8.34,2.77-14.16,3.53-4.71,3.19-5.62,5.54-9.37.54-.86,2.29-.92,2.69-2.15.57-1.74,0-4.06.14-5.92l-3.71,5.57c-.29-3.11,2.2-6.27,2.77-8.86.51-2.32-1.04-.8-1.83-.43l.91-8.37-3.71,16.28,1.86,1.38c-1.77,2.85-2.21,6.54-4.24,9.24-2.6,3.47-6.67,3.47-8.32,8.42-1.86-3.46,3.34-5.85,3.91-6.78,1.48-2.45,2.17-6.94,3.99-9.5l-1.83-.44-27.9,33.47c3.2-11.64,13.96-19.53,17.65-30.68-4.3,3.23-6.91,11.62-11.09,14.47-3.38,2.31-6.48,2.1-8.89,6.91l-.45-1.38c2.55-2.04,2.57-5.37,4.21-7.88s4.84-5.2,6.76-8.11c5.43-8.23,10.61-16.72,15.8-25.11.49-.8,1.98-2.4.64-3.08l-19.61,28.74-3.17,1.94-1.85-3.72c-4.06,9.17-8.91,19.84-15.81,26.96.55-5.07,3.2-10.84,5.41-15.5,3.57-7.54,9.69-14.56,11.31-22.61-2.53-.56-1.58.78-2.29,1.85-2.58,3.88-4.48,8.65-7.05,12.31-1.75,2.5-5.63,4.46-6.92,8.15-2.32-2.78.03-3.3,1.4-5.57l-3.71.92c-2.5-7.07,2.54-12,3.7-18.6l-4.64,3.26,45.55-64.62c-22.26,22.02-38.04,49.79-57.18,74.38l4.18-13.01c-2.37-2.45-7.22,10.98-7.86,12.12-4.33,7.81-9.38,15.29-13.54,23.2-1.69.23-.77-1.94-.51-2.84,2.67-9.35,6.3-17.21,11.84-25.36l14.71-19.22c-.8-.85-16.03,14.51-17.2,15.79-2.34,2.55-5.34,8.18-7.24,9.95-2.8,2.61-8.1.26-7.17,4.93-2.85-1.69-.11-4.35,1.87-5.11l-1.82-1.8c2.12-3.12,4.49-5.79,4.6-9.82-4.19,1.86-5.72,8.35-10.22,8.38l.48,1.86,2.3.43-13.92,22.8c-.2-4.06,2.22-8.46,3.92-12.34,2.52-5.77,2.35-10.44,4.92-16.48,1.31-3.09,3.85-7.2,5.65-10.16,1.27-2.1,4.56-4.85,3.65-6.58-6.21,6.52-10.97,14.57-16.65,21.49-.79.96-.01,2.33-2.41,1.74-1.69-2.1,17.36-36.62,18.61-42.29l-1.86-.47c-5.1,8.21-8.08,20.15-13.56,27.83-1.61,2.26-4.44,3.95-5.97,6.11-3.55,5.01-.95,6.84-8.39,9.29-1.12.37-1.3,1.01-.93-.93l40.91-67.4c-17.38,23.38-34.63,47.66-46.57,74.3l-2.7.07.92-8.35c-2.38-.5-3.76,3.28-5.58.44-.22-1.42,4.96-7.75,6.14-9.65.49-.79,2.34-2.01.84-2.88-5.6,3.78-6.56,11.14-10.68,15.35-.71.72-2.15,2.63-1.85.02.03-4.16,5.33-6.17,4.16-9.8l-21.39,24.17,1.44-5.1-1.95-.94.42-1.47c.04-2.38,13.69-11.18,11.72-12.93-4.02-1.56-6.2,3.53-7.4,4.17-.83.44-2.09-.64-2.63-.33s-1.22,3.54-2.97,3.6c.39-4.82,6.13-8.85,7.99-12.93.64-1.41.87-2.27-1.01-1.94-1.43,2.06-4.76,6.02-6.98,5.11l1.85-3.26c-5.73.26-6.47,6.49-12.07,7.43l10.21-24.17-13.48,17.66-15.33,7.44,2.33-9.26,19.05-16.31c.15-.69-.98-.64-1.38-.45-3.14,1.43-8.97,8.76-12.1,11.15-2.02,1.55-4.5,2.17-6.51,3.71-1.46-2.43.14-5.6.36-8.01.09-1.04.86-3.34-.81-3.13-1.04,3.92-.33,9.71-1.93,13.22-.18.39-4.44,6.81-4.82,7.02-.88.5-2.36-.09-3.25.41-.25.14-3.41,4.23-3.53,4.49-1.02,2.23,1.51,4.14-3.68,6.45-.96-10.9,7.52-18.96,12.3-27.68.32-.59,2.2-3.62-.2-2.99-4.01,5.42-8.55,11.06-12.02,16.81-4.42,7.3-6.19,16.56-14.03,20.36l-2.31-3.69c.46,2.86-2.33,8.67-5.14,9.27-3.13.67.27-6.83-2.76-5.55-1.96.83-5.09,8.51-9.77,7.42l6.5-14.87c-6.49,4.79-5.54,15.69-13.93,18.59.51-9.01,4.39-15.26,11.21-20.86,4.7-3.86,6.36-4.65,11.07-9.38.89-.89,8.33-7.18,7.46-7.87l-4.64.46,5.56-9.77-44.64,49.27-1.86-.47c-.43-7.01,12.98-14.74,13.01-15.79.03-.96-3.16-1.95-3.7-1.39-.18.19.38,1.89-.19,2.54-.45.52-6.01,2.37-6.79,4.89l-.45-1.38,23.23-28.37-3.77,1.34-16.23,18.17c-1.2-3.05,3.17-6.45,3.8-9.24l-1.46-1.91c-4.17,5.48-6.87,11.99-10.79,17.58-.89,1.27-4.55,5.97-5.48,6.61-4.08,2.79-.42-6.41.4-7.97,4.74-9.06,14.2-18.08,19.41-26.15.51-.78,1.95-2.44.63-3.09-2.19,2.42-4.86,4.48-6.96,6.99-7.68,9.18-16,23.36-24.67,31.16-.8.72-2.48.62-3,1.14-.83.83-.61,4.38-2.58,5.33-.93-2.62,1.54-6.89,2.94-9.16,2.18-3.55,5.93-4.82,5.89-8.51-4.5,2.7.29-6.03,0-7.43-3.92,2.3-4.85,7.34-7.43,10.69-3.79,4.92-10.08,7.33-13.48,12.54l-4-4.91,7.73-19.24c-4.39,2.3-7.4,14.82-9.08,16.49-.5.5-2.23.43-3.51,1.59-2.5,2.27-3.54,7.73-6.95,9.81-.87-10.06,13.13-14.37,12.1-24.17-3.3,6.39-8.3,10.57-13.33,15.49l-8.51,15.18c-.07-6.33,4.56-11.24,6.95-16.75,2.01-4.63,3.41-10.73,5.53-14.92,3.84-7.58,12.8-15.6,17.26-23.17-1.06-1.02-4.77,3.33-5.55,4.2-8.57,9.58-17.44,24.21-25.68,34.76-1.09,1.39-2.39,2.56-3.64,3.8l2.32-11.15c-3.77-.79-4.2,5.12-6.52,3.24l12.09-22.77c-5.81,3.78-7.08,11.5-12.55,15.8-.7.14-.6-.9-.45-1.37,1.04-3.2,22.29-33.13,25.15-35.29,3.04-2.3,10.27-4.33,9.71-8.89l-5.59,3.71c-.32-2.52,3.58-6.9,5.57-9.3,2.67-3.23,6.12-6.08,8.84-9.28-3.42-.34-5.32,2.06-7.41,4.2-10.01,10.26-25,33.44-33.9,46.06-2.11,2.99-3.98,8.25-6.09,10.65-1.94,2.21-4.33,2.36-6.53,4.63-4.43,4.57-5.38,12.31-7.45,18.12-1.65.17-.99-3.16-.9-4.16.53-5.91,2.12-16.52,4.17-21.86,1.8-4.68,5.59-7.94,4.17-13.95l-23.67,34.44c-.85,1.38-2.04.38-2.3-.58-2.03-7.53,11.48-15.84,9.71-23.62-7.63,8.42-12.46,19.1-16.29,29.74-4.48-2.68.67-7.12.92-9.8.5-5.48-1.37-6.35.94-13.92,4.46-14.61,12.25-27.6,18.6-41.36-9.67,13.55-18.06,28.48-22.32,44.63l-2.4-4.19,7.99-16.25c-3.56-2.77-9.89,13.01-11.62,12.99-2.87-3.61-3.44-7.62-3.25-12.07.61.05,1.24-.02,1.85,0v-5.58c-1.2.11-1.82,4.74-1.85,5.57-3.45-.3-4.73-4.69-6.03-7.45-13.86-29.62-26.23-63.4-39.04-93.92-1.97-4.7-4.32-9.81-5.14-14.84.73-.69,15.29,4.49,17.4,5.37,2.62,1.1,9.71,4.29,12.08,5.59,2.08,1.14,4.15,4.31,5.59,4.71,3.99,1.1,5.49-3.17,8.21-3.6,2.57-.41,5.23,1.13,7.83.97l-.9,8.34c3.49.15,4.49-2.78,5.75-5.4,30.09,4.36,60.29,10.61,90.59,14.58,23.43,3.07,49.82,6.42,73.3,7.6,12.7.64,24.39-.07,36.41-4.58,1.18-.44,2.85-.21,3.14-1.96-8.92.73-17.69-1.2-26.51-1.86-51.72-3.88-111.09-7.59-161.34-19.97-9.89-2.44-14.69-1.23-12.06-13.51-2.91-.52-6.06,1.72-8.7,1.57s-15.54-5.07-16.28-7.78l.83-2.61c4.9-1.84,9.67-4.18,14.66-5.79,12.71-4.1,12.88-1.76,24.04-10.37,8.96-6.91,17.9-1.22,4.53-16.88-6.38-7.47-14.6-14.44-20.91-21.86-11.41-13.44-23.22-27.31-34.4-40.91-2.52-3.06-16.31-22.77-15.84-25.06.44-2.12,9.45-1.56,11.52-1.31,7.97.95,15.14,5.63,22.88,7.33l-13.02-7.42c1.07-.04,1.98-.63,3.07-.61,17.38.2,39.45,15.23,58.53,8.74l11.85-5.34c-17.56,5.48-37.97,4.2-52.97-6.98,2.56-3.4,7.06-3.68,10.49-1.43,1.31.86.93,3.47,3.75,2.72s3.02-3.4,1.15-5.55c-4.28-4.92-30.4-5.1-37.25-4.56-8.05.64-22.27,5.57-29.65,3.64-7.92-2.08-17.51-11.37-25.27-14.77-1.12-.83-1.45-1.7-1.23-3.08.15-.98,4.35-7.98,5.47-5.78l-1.87,6.96c1.98.43,2.11-1.01,2.95-2.16,3.73-5.14,5.31-12.1,5.43-18.29l3.71,2.32,4.63,6.97-5.59-25.55,3.62-2.66-7.31-10.84,10.22,1.4c-3.53-4.78-12.91-10.85-18.58-12.11-2.71-.6-15.95,1.79-14.87-2.74l6.49-4.21c-4.94-.79-13.3,7.62-13.95-.94l-10.68,6.58-15.33-4.72c-.54,4.04,8.07,1.76,6.39,5.91-2.13,1.38-4.77,4.25-6.58,5.49-2.09,1.43-8.42,3.56-8.86,5.93s2.33,1.16-3.03,3.59l4.62,1.85c-1.07,1.83-3.7,8.68-3.7,10.23v19.99c3.98.63.07-5.71,3.25-7.42,1.17,0,3.17,18.23,8.83,17.64-.17-2.38-2.7-3.2-.46-5.57.85,1.9,8.22,6.39,7.9,7.88-.58,2.72-4.98-.05-6.25-.24-5.89-.86-18.3-2.31-23.51.24-.43.21-1.18,1.21-.92,1.4l9.29-.46-15.73,7.52-7.5,12.02c1.09,1.57,1.98-.3,2.64-1.08,2.99-3.58,5.05-8.47,8.98-11.47,1.17,2.7-2.61,6.16-3.09,9.08-.4,2.41,1.02,4.56.12,6.47-1,2.11-4.77,3.29-5.63,6.53-2.05,7.73-1.9,18.52-3.27,26.48-2.48,14.38-7.43,28.26-10.47,42.53-5.39,25.26-9.05,50.91-15.14,76.03-.27,1.2.47,1.53,1.41,1.91,2.93,1.2,10.42,1.69,14.24,2.5,4.51.95,8.33,3.76,13.93,2.35.95,3.76-2.15,4.67-3.57,7.12-13.17,22.6-28.01,44.01-41.44,66.41-8.14,13.57-11.25,27.34-21.45,38.98-1.44,1.64-3.19,3.02-4.66,4.63-.56-8.79,7.21-15.93,9.76-24.16l-11.62,12.08c-1-1.3.68-3.91,1.25-5.26,8.97-21.55,27.87-40.16,38.33-60.23.45-.87,1.71-2.64.41-3.31-8.94,13.05-18.33,25.82-26.89,39.13-5.41,8.41-12.33,23.76-17.78,30.57-1.28,1.59-3.25,2.27-4.62,3.75l2.32-7.43c-1.11-1.15-4.08,3.95-6.95,1.86l-.48-1.84c4.32-1.62,5.95-8.32,8.36-12.1-2.43-.59-1.63.77-2.4,1.75-2.88,3.65-5.27,7.84-7.8,11.75-.77,1.19-.72,2.75-2.82,2.29.29-2.34,2.07-3.62,2.86-6.04s-.02-5.46,1.36-7.86l4.61-10.26c-7.65,9.45-9.75,22.48-19.53,30.67l-.45-2.08c-3.08-2.74-4.24,2.91-6.51,3.95,1.37-7.15,10.72-8.36,13.94-14.87-5.81-.5-7.9,4.9-13.02,5.56l2-3.58,1.71.8c-2.31-4.56,3.18-5.86.93-10.23l-4.64,1.4,5.57-6.97c-6.54-.26-9.05,6.04-15.81,5.56-.75-.58,6.63-8.22,5.12-10.21-2.78,2.73-4.31,7.29-6.57,10.16-8.22,10.44-26.79,12.71-36.66,21.45.71-12.34,9.55-21.31,13.95-32.06l-1.86-.47-21.51,37.08-5.46-1.75c.08,2.43-3.65,8-6.04,8.38-2.51.41-.86-2.32-1.01-3.8-.45-4.53-3.45.29-4.17,2.34l-7.38,4.23,6.5-13.48c.2-.62-.84-.69-1.38-.45-3.01,1.32-6.23,15.71-11.63,16.73.46-8.29,2.78-14.05,9.09-19.53,2.62-2.28,5.37-2.34,7.22-3.67,1.39-1,2.99-4.84,4.59-6.57,1.5-1.62,7.85-6.44,7.9-6.96.22-2.29-4.15-.02-4.63-.93,2.31-3.32,4.47-6.57,6.96-9.78.57-.73,2.5-1.79.94-2.77-4.04,4.09-9.58,8.43-8.84,14.88l-3.29-.11c-10.38,13.78-24.19,24.15-35.3,37.29-2.05-7.88,11.87-12.5,13.47-18.14.54-1.77-1.29-1.75-2.29-1.4-1.12.39-5.11,7.36-8.39,8.39l-.45-1.38,21.38-27.43c-.69-.61-3.69,1.58-4.31,2.18-3.79,3.66-8.06,10.39-11.82,14.21-.8.81-2.18,1.2-2.93,2.19l1.87-9.29c-4.01,3.39-5.48,8.73-8.43,12.95-.98,1.41-2.51,2.43-3.58,3.86-1.75,2.33-3.07,6.66-5.68,7.34-2.36.62-.84-.76-.72-1.63.98-6.92,11.42-19.59,15.72-26.13.52-.8,2.29-2.09.81-2.91l-23.33,28.74c-2.7,2.79-7.31,3.14-6.89,8.46-1.92.05-.61-3.62-.3-4.49,1.21-3.35,4.34-6.47,5.43-9.44.83-2.27.81-5.2,1.62-7.68.72-2.19,2.47-3.19,2.54-5.35-4.66,3.56-6.69,9.57-10.67,13.96s-10.85,7.29-11.64,13.93c-1.98,0-.25-3.03-1.13-4.46-.29-.46-2.04-.49-2.47-1.69-1.36-3.82,7.54-16.99,8.25-21.73l-5.45,8.01-2.91,9.65-2.21-.92-5.22,3.71v-5.58l2.84-.44c.04-2.3,2.83-2.47,3.74-3.67s1.91-7.09-.06-7.97v6.5s-6.52,1.87-6.52,1.87v-13.95c2.11,1.3,1.6,1.32,3.07-.22,3.65-3.83,6.06-8.91,9.03-13.25-6.04,2.14-5.97,10.69-12.1,12.54v-25.1c4.62.58,7.83-3.14,10.23-6.5-2.64.7-4.02,1.54-6.96,1.88s1.65-2.89-3.27-1.89ZM796.83,794.03c1.7-.99,3.94-2.69,3.7-4.65-1.7.99-3.94,2.69-3.7,4.65ZM3.73,834.94c4.44-6.17,11.59-13.15,15.37-19.49.74-1.23,1.83-1.9,1.35-3.76-5.61,4.45-9.11,11.08-13.58,16.63-1.77,2.19-4.97,2.31-3.14,6.61ZM156.19,843.31c.34-9.58,6.78-16.8,7.44-26.02l-6.26,13.72c.09,3.23-1.38,6.22-1.87,9.29-.16.99-.98,3.23.69,3.01ZM1748.93,822.86c1.51-.67,3.08-2.04,2.77-3.72-1.51.67-3.08,2.04-2.77,3.72ZM2005.54,835.87c-2.24-2.26,10.71-13.61,11.15-16.73-.94-1.01-16.79,19.4-17.48,21.1-.25.62-.61,2.07.28,2.14.69-2.05,11.94-5.07,8.16-6.51h-2.11ZM831.22,828.43l.93-8.36c-2.03.57-2.92,7.44-.93,8.36ZM1540.64,825.64v-3.71s-.91,0-.91,0l-.94,3.71h1.85ZM1744.28,830.3c1.73-.68,2.87-2.99,2.77-4.65-1.73.68-2.87,2.99-2.77,4.65ZM625.73,834.94l.93-6.5c-1.41.06-2.83,6.44-.93,6.5ZM651.78,833.09c-1.86-.29-9.84,6.9-9.3,7.42l9.3-7.42ZM1191.06,836.8c1.51-.67,3.08-2.04,2.77-3.72-1.51.67-3.08,2.04-2.77,3.72ZM1736.84,841.45c2.47-1.29,4.26-4.72,4.63-7.44l-4.63,7.44ZM150.62,835.88l-26.97,20.9c-1.17,2.45-16.06,13.16-13.93,15.35,1.75.4,2.2-.99,3.25-1.85,4.13-3.42,7.14-8.4,10.65-11.66,8.29-7.7,19.24-14.19,27-22.73ZM721.52,840.52c1.7-.99,3.94-2.69,3.7-4.65-1.7.99-3.94,2.69-3.7,4.65ZM519.76,841.45c1.7-.99,3.94-2.69,3.7-4.65-1.7.99-3.94,2.69-3.7,4.65ZM1112.02,838.67c-3.98,1.43-7.79,4.99-10.23,8.35,3.75-1.43,7.29-5.57,10.23-8.35ZM1499.75,846.1c1.7-.99,3.94-2.69,3.7-4.65-1.7.99-3.94,2.69-3.7,4.65ZM1510.9,860.04c2.83.32,2.79-2.75,3.35-4.63l.36-13.95-3.7,18.59ZM155.26,849.82v-5.57h-.91v5.57h.91ZM1644.79,857.26l3.18-2.85,6.1-10.16-5.04,4.7-4.23,8.31ZM1428.14,845.18c-1.1-.97-5.13,3.46-5.58,4.63,1.18,1.04,5.88-4.37,5.58-4.63ZM1694.06,847.04c-1.68-.31-3.05,1.26-3.72,2.77,1.68.31,3.05-1.26,3.72-2.77ZM1099.93,848.9l-15.48,11.47c-2.29,5.2-10.25,6.57-10.54,12.69.15.19,2.69-1.36,3.28-1.86,3.41-2.85,5.5-6.49,8.77-9.79,4.64-4.68,9.78-7.66,13.97-12.52ZM57.65,854.46c1.85.24,3.91-1.71,3.71-3.71l-3.71,3.71ZM657.36,850.76c-4.97,2.26-11.9,3.58-14.88,8.35,5.21-1.58,10.51-5.11,14.88-8.35ZM1727.54,856.33c1.67-1.02,3.59-3.58,3.7-5.58-1.94.92-3.75,3.38-3.7,5.58ZM1022.77,856.33c1.73-.68,2.87-2.99,2.77-4.65-1.94.75-3.11,2.56-2.77,4.65ZM1617.81,851.68c-2.41,2.58-5.78,5.68-7.9,8.37-1.15,1.47-2.09,1.1,0,2.77,2.6-3.54,6.7-6.82,7.89-11.14ZM1419.77,852.62c-1.84-.41-2.5.42-3.76,1.34-3.35,2.43-10.49,9.22-11.1,13.53l14.86-14.87ZM1287.75,869.34c2.06.5,2.06-1.2,2.97-2.13,3.5-3.59,8.37-9.06,10.03-13.67-2.45,2.37-5.23,5.31-7.41,7.93-.82.99-6.26,7.21-5.6,7.88ZM1685.69,853.55c-1.74-.41-2.21.97-3.26,1.85-3.54,2.98-6.74,6.73-10.16,9.87-2.14,1.97-6.97,3.1-6.11,7.79,3.87.29,4.18-3.35,6.14-5.48,4.35-4.75,9.35-8.99,13.38-14.03ZM1580.63,871.2c2.03,2.06,8.14-11.12,8.57-12.34.53-1.48.97-2.77.71-4.39l-9.29,16.72ZM451.86,871.2l1.86-11.15-2.73,7.95.87,3.19ZM1710.81,864.7c1.51-.67,3.08-2.04,2.77-3.72-1.51.67-3.08,2.04-2.77,3.72ZM1605.74,878.64c5.12-3.28,8.01-9.05,9.28-14.87-4.06,2.93-5.39,9.19-10.1,11.32l.83,3.55ZM1403.97,865.63c-2.55-.58-1.58.85-2.29,1.86-5.84,8.38,2.76,4.92,2.29-1.86ZM1496.02,866.57c-2.95-.21-3.06,3.86-4.65,5.56,2.97.21,3.41-3.67,4.65-5.56ZM710.35,869.35h-2.78s.94,2.78.94,2.78l1.84-1.41v-1.38ZM930.72,878.64c2.37-.72,1.86-3.53,1.84-5.58-2.37.72-1.86,3.53-1.84,5.58ZM464.88,879.57l.93-5.57c-2.39.75-1.89,3.59-1.84,5.57h.91ZM1350.97,876.79h-1.38c-3.99,1.56,1.58,8.96,1.38,0ZM1615.96,879.57c-.89.8-4.69.68-3.71,4.64,3.56.59,4.04-1.75,3.71-4.64l1.86.51c1.88-1.66,1.21-4.58-.95-2.84-.99.8-.81,2.24-.91,2.34ZM1043.22,887.95c-2-.2-3.95,1.86-3.71,3.71l3.71-3.71Z"/>
  <path class="cls-1" d="M0,889.8l5.22-3.71,2.21.92,2.91-9.65,5.45-8.01c-.71,4.74-9.61,17.92-8.25,21.73.43,1.2,2.18,1.23,2.47,1.69.88,1.42-.85,4.45,1.13,4.46.79-6.64,7.49-9.36,11.64-13.93s6.01-10.39,10.67-13.96c-.07,2.16-1.82,3.16-2.54,5.35-.81,2.48-.79,5.41-1.62,7.68-1.09,2.98-4.23,6.09-5.43,9.44-.31.87-1.62,4.54.3,4.49-.42-5.32,4.19-5.67,6.89-8.46l23.33-28.74c1.48.82-.29,2.11-.81,2.91-4.3,6.54-14.73,19.21-15.72,26.13-.12.88-1.64,2.25.72,1.63,2.6-.68,3.93-5.01,5.68-7.34,1.07-1.43,2.6-2.45,3.58-3.86,2.95-4.22,4.42-9.56,8.43-12.95l-1.87,9.29c.75-.99,2.13-1.37,2.93-2.19,3.76-3.83,8.03-10.55,11.82-14.21.63-.6,3.62-2.79,4.31-2.18l-21.38,27.43.45,1.38c3.28-1.03,7.28-8,8.39-8.39,1-.35,2.83-.37,2.29,1.4-1.6,5.64-15.52,10.26-13.47,18.14,11.11-13.14,24.92-23.51,35.3-37.29l3.29.11c-.74-6.45,4.8-10.78,8.84-14.88,1.56.99-.38,2.04-.94,2.77-2.48,3.21-4.64,6.46-6.96,9.78.47.9,4.84-1.36,4.63.93-.05.52-6.4,5.34-7.9,6.96-1.6,1.73-3.2,5.57-4.59,6.57-1.85,1.33-4.6,1.39-7.22,3.67-6.31,5.48-8.63,11.24-9.09,19.53,5.4-1.01,8.62-15.41,11.63-16.73.54-.23,1.57-.16,1.38.45l-6.5,13.48,7.38-4.23c.72-2.05,3.72-6.87,4.17-2.34.15,1.48-1.51,4.21,1.01,3.8s6.13-5.96,6.04-8.38l5.46,1.75,21.51-37.08,1.86.47c-4.4,10.75-13.24,19.73-13.95,32.06,9.86-8.74,28.44-11.01,36.66-21.45,2.26-2.87,3.8-7.43,6.57-10.16,1.51,2-5.87,9.64-5.12,10.21,6.75.48,9.27-5.82,15.81-5.56l-5.57,6.97,4.64-1.4c2.25,4.36-3.24,5.66-.93,10.23l-1.71-.8-2,3.58c5.12-.66,7.21-6.06,13.02-5.56-3.22,6.5-12.57,7.71-13.94,14.87,2.27-1.04,3.44-6.69,6.51-3.95l.45,2.08c9.78-8.19,11.88-21.23,19.53-30.67l-4.61,10.26c-1.38,2.4-.6,5.55-1.36,7.86s-2.58,3.7-2.86,6.04c2.09.46,2.05-1.1,2.82-2.29,2.52-3.91,4.92-8.1,7.8-11.75.77-.98-.03-2.34,2.4-1.75-2.41,3.78-4.04,10.48-8.36,12.1l.48,1.84c2.87,2.1,5.84-3,6.95-1.86l-2.32,7.43c1.37-1.48,3.35-2.15,4.62-3.75,5.45-6.81,12.37-22.16,17.78-30.57,8.55-13.31,17.95-26.08,26.89-39.13,1.3.67.04,2.43-.41,3.31-10.46,20.07-29.36,38.68-38.33,60.23-.56,1.35-2.25,3.97-1.25,5.26l11.62-12.08c-2.55,8.23-10.32,15.38-9.76,24.16,1.47-1.61,3.23-2.99,4.66-4.63,10.21-11.64,13.31-25.41,21.45-38.98,13.44-22.4,28.28-43.81,41.44-66.41,1.42-2.44,4.53-3.36,3.57-7.12-5.6,1.41-9.42-1.4-13.93-2.35-3.82-.8-11.31-1.3-14.24-2.5-.94-.39-1.68-.71-1.41-1.91,6.08-25.12,9.75-50.77,15.14-76.03,3.04-14.26,7.99-28.15,10.47-42.53,1.37-7.96,1.22-18.75,3.27-26.48.86-3.24,4.63-4.43,5.63-6.53.9-1.9-.51-4.05-.12-6.47.48-2.92,4.26-6.38,3.09-9.08-3.94,3-6,7.89-8.98,11.47-.65.78-1.55,2.65-2.64,1.08l7.5-12.02,15.73-7.52-9.29.46c-.26-.19.48-1.19.92-1.4,5.21-2.55,17.61-1.1,23.51-.24,1.27.19,5.67,2.95,6.25.24.32-1.49-7.05-5.98-7.9-7.88-2.24,2.37.3,3.19.46,5.57-5.66.59-7.65-17.65-8.83-17.64-3.19,1.71.73,8.05-3.25,7.42v-19.99c0-1.55,2.63-8.4,3.7-10.23l-4.62-1.85c5.36-2.43,2.59-1.18,3.03-3.59s6.77-4.5,8.86-5.93c1.81-1.24,4.45-4.11,6.58-5.49,1.68-4.15-6.93-1.88-6.39-5.91l15.33,4.72,10.68-6.58c.66,8.56,9.01.15,13.95.94l-6.49,4.21c-1.08,4.53,12.16,2.14,14.87,2.74,5.67,1.26,15.05,7.33,18.58,12.11l-10.22-1.4,7.31,10.84-3.62,2.66,5.59,25.55-4.63-6.97-3.71-2.32c-.12,6.2-1.69,13.15-5.43,18.29-.84,1.15-.96,2.59-2.95,2.16l1.87-6.96c-1.12-2.2-5.32,4.8-5.47,5.78-.22,1.38.12,2.26,1.23,3.08,7.76,3.4,17.35,12.69,25.27,14.77,7.38,1.93,21.59-3,29.65-3.64,6.84-.54,32.97-.36,37.25,4.56,1.86,2.14,1.55,4.84-1.15,5.55s-2.44-1.86-3.75-2.72c-3.43-2.25-7.93-1.96-10.49,1.43,15.01,11.18,35.42,12.46,52.97,6.98l-11.85,5.34c-19.08,6.49-41.15-8.54-58.53-8.74-1.09-.01-2,.57-3.07.61l13.02,7.42c-7.74-1.7-14.91-6.38-22.88-7.33-2.08-.25-11.09-.81-11.52,1.31-.47,2.28,13.32,21.99,15.84,25.06,11.18,13.6,22.99,27.47,34.4,40.91,6.3,7.42,14.53,14.4,20.91,21.86,13.37,15.66,4.43,9.97-4.53,16.88-11.16,8.6-11.33,6.27-24.04,10.37-4.99,1.61-9.76,3.95-14.66,5.79l-.83,2.61c.74,2.71,13.71,7.63,16.28,7.78s5.79-2.09,8.7-1.57c-2.63,12.29,2.17,11.08,12.06,13.51,50.25,12.38,109.62,16.08,161.34,19.97,8.82.66,17.59,2.59,26.51,1.86-.29,1.75-1.96,1.52-3.14,1.96-12.02,4.5-23.71,5.21-36.41,4.58-23.48-1.18-49.87-4.52-73.3-7.6-30.3-3.97-60.5-10.22-90.59-14.58-1.26,2.62-2.27,5.55-5.75,5.4l.9-8.34c-2.61.16-5.26-1.38-7.83-.97-2.72.44-4.22,4.71-8.21,3.6-1.44-.4-3.52-3.57-5.59-4.71-2.37-1.3-9.45-4.49-12.08-5.59-2.11-.88-16.67-6.06-17.4-5.37.83,5.03,3.17,10.14,5.14,14.84,12.81,30.53,25.18,64.31,39.04,93.92,1.3,2.77,2.58,7.15,6.03,7.45.04-.83.66-5.47,1.85-5.57v5.58c-.61-.03-1.24.05-1.85,0-.19,4.45.39,8.46,3.25,12.07,1.74.02,8.06-15.76,11.62-12.99l-7.99,16.25,2.4,4.19c4.26-16.15,12.65-31.08,22.32-44.63-6.35,13.76-14.14,26.75-18.6,41.36-2.31,7.56-.44,8.44-.94,13.92-.24,2.68-5.4,7.12-.92,9.8,3.83-10.64,8.65-21.32,16.29-29.74,1.77,7.79-11.73,16.09-9.71,23.62.26.96,1.45,1.96,2.3.58l23.67-34.44c1.42,6.01-2.37,9.28-4.17,13.95-2.05,5.34-3.64,15.96-4.17,21.86-.09,1-.74,4.33.9,4.16,2.07-5.81,3.02-13.56,7.45-18.12,2.2-2.26,4.59-2.41,6.53-4.63,2.11-2.4,3.98-7.66,6.09-10.65,8.9-12.63,23.89-35.8,33.9-46.06,2.09-2.14,4-4.54,7.41-4.2-2.72,3.2-6.17,6.05-8.84,9.28-1.99,2.41-5.89,6.78-5.57,9.3l5.59-3.71c.56,4.56-6.67,6.59-9.71,8.89-2.86,2.16-24.11,32.09-25.15,35.29-.15.47-.25,1.52.45,1.37,5.47-4.3,6.73-12.03,12.55-15.8l-12.09,22.77c2.31,1.88,2.74-4.03,6.52-3.24l-2.32,11.15c1.25-1.23,2.56-2.4,3.64-3.8,8.24-10.55,17.11-25.17,25.68-34.76.78-.87,4.49-5.23,5.55-4.2-4.46,7.58-13.42,15.6-17.26,23.17-2.12,4.19-3.53,10.29-5.53,14.92-2.39,5.51-7.02,10.42-6.95,16.75l8.51-15.18c5.03-4.92,10.03-9.1,13.33-15.49,1.03,9.79-12.97,14.11-12.1,24.17,3.41-2.07,4.45-7.53,6.95-9.81,1.27-1.16,3-1.08,3.51-1.59,1.68-1.67,4.69-14.2,9.08-16.49l-7.73,19.24,4,4.91c3.4-5.21,9.69-7.62,13.48-12.54,2.58-3.35,3.51-8.39,7.43-10.69.29,1.4-4.5,10.13,0,7.43.04,3.69-3.71,4.96-5.89,8.51-1.39,2.27-3.87,6.54-2.94,9.16,1.96-.95,1.75-4.51,2.58-5.33.52-.52,2.2-.42,3-1.14,8.67-7.8,16.99-21.97,24.67-31.16,2.1-2.51,4.77-4.56,6.96-6.99,1.32.64-.13,2.3-.63,3.09-5.21,8.07-14.67,17.08-19.41,26.15-.82,1.56-4.48,10.76-.4,7.97.93-.64,4.59-5.33,5.48-6.61,3.92-5.6,6.63-12.1,10.79-17.58l1.46,1.91c-.64,2.79-5,6.19-3.8,9.24l16.23-18.17,3.77-1.34-23.23,28.37.45,1.38c.78-2.51,6.34-4.37,6.79-4.89.57-.66.01-2.36.19-2.54.54-.56,3.72.43,3.7,1.39-.03,1.05-13.44,8.78-13.01,15.79l1.86.47,44.64-49.27-5.56,9.77,4.64-.46c.87.69-6.57,6.97-7.46,7.87-4.71,4.74-6.37,5.53-11.07,9.38-6.82,5.59-10.7,11.85-11.21,20.86,8.38-2.91,7.44-13.8,13.93-18.59l-6.5,14.87c4.68,1.09,7.81-6.6,9.77-7.42,3.03-1.28-.37,6.22,2.76,5.55,2.81-.6,5.6-6.42,5.14-9.27l2.31,3.69c7.84-3.79,9.61-13.05,14.03-20.36,3.47-5.75,8.01-11.39,12.02-16.81,2.4-.62.52,2.41.2,2.99-4.79,8.72-13.27,16.78-12.3,27.68,5.19-2.31,2.66-4.22,3.68-6.45.12-.26,3.28-4.35,3.53-4.49.89-.51,2.37.09,3.25-.41.38-.21,4.64-6.63,4.82-7.02,1.6-3.51.89-9.3,1.93-13.22,1.67-.21.9,2.09.81,3.13-.22,2.41-1.82,5.59-.36,8.01,2.02-1.54,4.49-2.17,6.51-3.71,3.13-2.39,8.96-9.72,12.1-11.15.4-.18,1.53-.24,1.38.45l-19.05,16.31-2.33,9.26,15.33-7.44,13.48-17.66-10.21,24.17c5.61-.95,6.35-7.18,12.07-7.43l-1.85,3.26c2.21.91,5.55-3.05,6.98-5.11,1.88-.33,1.65.53,1.01,1.94-1.85,4.07-7.59,8.1-7.99,12.93,1.75-.05,2.44-3.29,2.97-3.6s1.8.77,2.63.33c1.2-.64,3.38-5.72,7.4-4.17,1.97,1.75-11.68,10.54-11.72,12.93l-.42,1.47,1.95.94-1.44,5.1,21.39-24.17c1.18,3.62-4.12,5.64-4.16,9.8-.3,2.61,1.14.7,1.85-.02,4.12-4.22,5.08-11.58,10.68-15.35,1.49.87-.35,2.09-.84,2.88-1.18,1.9-6.35,8.23-6.14,9.65,1.82,2.84,3.2-.94,5.58-.44l-.92,8.35,2.7-.07c11.93-26.64,29.19-50.92,46.57-74.3l-40.91,67.4c-.37,1.94-.19,1.3.93.93,7.43-2.45,4.83-4.28,8.39-9.29,1.53-2.16,4.36-3.85,5.97-6.11,5.48-7.68,8.45-19.62,13.56-27.83l1.86.47c-1.25,5.66-20.3,40.18-18.61,42.29,2.4.59,1.62-.78,2.41-1.74,5.68-6.93,10.44-14.98,16.65-21.49.91,1.73-2.37,4.48-3.65,6.58-1.79,2.96-4.34,7.07-5.65,10.16-2.56,6.03-2.39,10.7-4.92,16.48-1.7,3.88-4.12,8.28-3.92,12.34l13.92-22.8-2.3-.43-.48-1.86c4.5-.03,6.03-6.52,10.22-8.38-.11,4.03-2.49,6.7-4.6,9.82l1.82,1.8c-1.98.76-4.71,3.42-1.87,5.11-.93-4.67,4.37-2.32,7.17-4.93,1.9-1.77,4.9-7.41,7.24-9.95,1.18-1.28,16.41-16.65,17.2-15.79l-14.71,19.22c-5.55,8.14-9.17,16-11.84,25.36-.26.89-1.18,3.07.51,2.84,4.15-7.91,9.2-15.39,13.54-23.2.64-1.15,5.49-14.57,7.86-12.12l-4.18,13.01c19.13-24.59,34.91-52.35,57.18-74.38l-45.55,64.62,4.64-3.26c-1.16,6.6-6.2,11.53-3.7,18.6l3.71-.92c-1.37,2.27-3.71,2.79-1.4,5.57,1.29-3.69,5.17-5.66,6.92-8.15,2.57-3.66,4.47-8.42,7.05-12.31.71-1.07-.24-2.41,2.29-1.85-1.62,8.05-7.74,15.07-11.31,22.61-2.21,4.67-4.85,10.44-5.41,15.5,6.9-7.12,11.75-17.79,15.81-26.96l1.85,3.72,3.17-1.94,19.61-28.74c1.34.68-.15,2.28-.64,3.08-5.2,8.38-10.37,16.88-15.8,25.11-1.92,2.91-5.15,5.63-6.76,8.11s-1.66,5.84-4.21,7.88l.45,1.38c2.41-4.81,5.51-4.6,8.89-6.91,4.18-2.85,6.79-11.23,11.09-14.47-3.69,11.16-14.44,19.05-17.65,30.68l27.9-33.47,1.83.44c-1.81,2.56-2.5,7.05-3.99,9.5-.56.93-5.77,3.32-3.91,6.78,1.65-4.95,5.72-4.95,8.32-8.42,2.03-2.7,2.47-6.39,4.24-9.24l-1.86-1.38,3.71-16.28-.91,8.37c.79-.37,2.34-1.89,1.83.43-.57,2.58-3.06,5.74-2.77,8.86l3.71-5.57c-.14,1.86.42,4.18-.14,5.92-.4,1.23-2.15,1.29-2.69,2.15-2.35,3.75-2.01,4.66-5.54,9.37-4.37,5.83-2.36,7.84-2.77,14.16,4.14.25,2.98-2.11,3.4-2.75,2.23-3.35,5.13-6.77,3.1-11.19l3.71.92c-1.37-4.27,2.87-5.51,3.52-7.14,3.92-9.74,8.04-30.04,13.35-37.82.38-.56.7-1.12,1.26-1.53l.47,1.4-13.5,40.43,12.29-17.44,6.77-23.46c-.28,7.57-1.36,17.82-4.59,24.68-4.61,9.79-15.11,17.48-15.85,29.21,3.58.55,4.9,3.22,8.06-.27,2.36-2.61,1.03-4.67,1.63-7.13,1.43-5.88,3.17-11.72,4.26-17.68,1.58-.25,1,2.24.91,3.23-.53,5.7-4.21,11.35-2.32,17.21l31.14-35.32-5.58,11.61c.7.58,6.71-4.74,5.57-.94-1.01,3.36-7.44,7.54-6.49,12.57l2.76-1.41-3.49,2.5-4.86,13.29,2.09,1.25,3.48-.75c1.89,1.99-8.01,9.04-7.44,12.54,2.05,1.61,3.95-.98,5.06-2.38,5.13-6.49,6.99-17.84,11.63-23.51.79-.96,3.26-.06,2.86-2.45,3.2,1.23-.81,3.13-1.22,3.93-3.48,6.75-5.26,12.45-5.96,20.05-.09,1.02-1.11,3.16.65,2.97l21.39-61.36-15.81,55.31c.92,1.52,2.08-.21,2.79-.93,3.11-3.22,9.12-11.5,11.19-15.08,2.81-4.86,4.06-11.08,7.88-15.1,2.36,1.71.58,1.55.12,2.87-2.86,8.12-9.01,14.54-11.72,22.7-.22,2.71,1.12.78,1.71-.16,1.78-2.83,3.23-6.59,4.8-9.62l2.67,3.4c.69,1.46-1.31.98-1.69,1.94-1.46,3.68-5.55,11.49-5.7,14.6-.09,1.91-.43,2.76,1.91,2.36-1.88-3.43.97-2.51,2.21-5.65,4.28-10.79,8.24-21.74,12.68-32.46,2.22-.38,2.13.37,1.81,2.27-.49,2.87-3.14,6.47-4.17,9.79-2.36,7.66-4,16.29-5.08,24.19,8.55-9.43,11.56-22.75,16.27-34.4l.59,1.61c3.3-1.68,4.25,1.85,3.34,4.43-.17.48-1.37.43-1.77,1.74-1.46,4.78-2.53,9.74-4.05,14.52-.55,1.75-4.13,6.1-1.39,7.45l10.07-26.66,15.03-24.47c-2.07,7.93-7.69,14.63-11.03,21.96-2.39,5.24-8.39,20.11-9.19,25.22-.84,5.41.53,10.67-2.08,16.04,1.62.3,2.41-.77,3.18-1.93,3.5-5.29,6.39-13.99,10.15-19.63,1.09-1.63,2.91-2.58,3.88-4.46,1.93-.31,1.59.47,1,1.93-1.92,4.8-10.56,14.04-9.84,18.97.88,6.07,7.57-6.98,8.05-7.64,5.1-7.07,11.11-14.08,15.39-21.93.57-1.04.73-2.26.74-3.42,2.31-.75,2.79,2.36,2.59,3.95-.42,3.3-9.32,18.52-8.17,20.23l1.84-.94c1.49,3.26-1.17,4.85-1.8,7.97-.18.91-1,5.63,1.33,5.05,2.48-4.78,3.17-10.51,6.58-14.87,1.85-2.36,3.46-.9,4.79-2.08,2.31-2.05,6.86-11.76,9.36-15.32,5.52-7.89,11.72-16.71,17.48-24.36,1.5-2,19.52-25.62,20.83-24.25l-13.93,19.07c1.54,2.2,5.57-3.88,5.57-.02-2.45,3.06-7.12,4.13-9.77,6.05-3,2.17-18.87,25.52-21.8,30.26-.75,1.21-4.17,9.86-1.44,6,3.12-4.41,6.36-9.39,9.33-13.95.71-1.09-.23-2.4,2.3-1.84-.37,5.49-5.16,9.53-7.78,14.07-.88,1.52-5.86,9.02-1.53,8.23-.13-1.98,1.91-2.86,3.73-2.77l-2.76,7.91,3.58,1.26c.93-.53,4.37-8.08,5.68-9.65,1.37-1.65,3.61-2.36,4.66-3.7,7.8-9.95,13.57-21.92,23.24-30.22l-18.96,27.05-12.63,30.59c5.05-4.3,5.58-11.86,9.81-16.68,1.48-1.69,3.52-2.6,5.1-4.19.37-.37,8.08-10.24,6.45-4.71-.78,2.64-7.94,9.19-9.97,13.28-.84,1.7-.84,3.81-2.09,5.35l1.83.44,19.08-28.81c1.33.66-.18,2.28-.61,3.11-2.61,5.13-4.9,10.39-7.77,15.37-.44,3.4,2.53,5.25,5.1,6.62.41-2.39,2.85-4.47,4.66-6.05s6.78-3.98,7.2-4.42c.5-.53,1.22-3.96,2.29-5.62,1.78-2.76,3.81-5.95,6.32-8.08-.96,3.07-2.02,5.87-2.54,9.12-.17,1.07.67,2.57.52,2.84-.45.8-4.76,2.23-3.71,6.53l-2.61.12v2.77c7.94-2.19,11.67-10.99,16.74-17.17,4.56-5.56,9.21-11.46,14.39-16.29,1.56.97-.41,2.03-.94,2.78-3.56,5.08-13.79,17.83-15.56,22.56-.61,1.62-.93,3.11-.72,4.86,3.26,2,4.91-3.85,6.67-6.39,2.05-2.95,2.89-4.79,4.62-7.43.97-1.48,5.91-9.09,6.36-9.44.68-.54,1.82-.9,1.89.03l-.2,1.66-4.93,9.95c4.31-4.34,8.75-8.63,12.88-13.12,2.16-2.35,4.17-7.92,8.04-6.87l-23.23,28.84.45,1.37c2.35-1.96,4.74-4.88,6.97-6.81.63-.54,3.07.62,2.79-2.75l2.8-.66c-1.65,7.08-14.43,11.25-13.96,19.04l1.86.47,46.05-52.06c1.56.97-.41,2.03-.93,2.78-2.53,3.61-5.03,7.34-7.9,10.7l5.57-1.39-.09,2.68c-4.94.41-7.54,8.41-12,8.47l.95,2.78c-4.75.43-14.7,10.08-16.04,14.2-1.04,3.21-.22,6.06-1.64,9.04,7.59-.89,6.7-11.85,12.08-15.8l-5.48,11.77,1.7,2.53c-.63,2.45-4.82,4.31-3.19,7.08,1.6-3.09,6.45-6.36,7.94-8.8.99-1.62,1.58-6.64,3.24-7,4.27-.94-.18,6.19,2.79,5.59,4.04-.82,4.41-6.05,6.03-7.06s3.23,1.13,5.15-.29c2.8-2.06,7.02-13.03,9.34-16.76,3.98-6.43,9.01-12.2,12.95-18.66,2.53-.63.15,3.11-.12,3.61-4.91,9.18-12.35,16.58-12.44,28,7.08-6.23,15.57-7.59,23.46-13.06,3.26-2.26,1.45-.35,4.44-1.23,2.32-.69,5.61-5.1,8.68-6.39,1.47-.62,2.9,0,4.04-.51,4.04-1.8,7.89-3.98,11.93-5.75,2.74-.16.78,1.05-.17,1.7-4.95,3.35-10.68,4.92-15.17,8.1-1.19.85-1.51,2.41-2.17,2.91-2.73,2.06-7.04,2.62-8.08,6.79l6.99-5.56,2.3,2.77c-.05-2.85,2.8-2.54,4.2-3.71.5-.42,8.73-9.03,6.96-4.2-.44,1.2-3.52,1.72,0,3.26l.95-3.71,1.84,2.77,2.8-3.25-1.85-1.38h2.78c-.52,5.98-5.84,10.01-9.29,14.41l13.94-6.97-12.84,14.62c-.8,2.62,1.08,1.81,1.4,2.35.43.71-.07,5.37,2.13,3.47.24-.21,2.39-4.26,3.37-5.47,7.37-9.14,9.84-12.94,19.63-18.95,1.38-.85,3.3-6.49,5.83-7.18l-6.47,13.33-1.88.63,2.77,2.77c-.15-2.03.06-1.86,1.7-1.1l2.96-2.6-1.4,6.49c.78-2.11,4.19-2.34,4.87-3.03.48-.49,4.42-10.3,5.67-12.47,11.01-19.17,23.77-37.82,37.34-55.16l-35.16,54.56c-1.53,4.33-4.19,8.19-4.82,12.86-.1.73-.31,3.37.93,1.84l.92-3.77c5.49-.69,3.03-1.76,5.23-5.89.73-1.38,3.06-4.9,5.01-4.74-2,5.25-5.1,10.15-7.63,15.14-.68,1.35-.48,3.28-1.24,4.38-.62.89-2.11.77-2.27.95-1.43,1.59,2.31,3.42,4.36,1.58l28.15-36.94-15.59,26.71c-.5,2.42-.82,5.98,2.58,5.82-1.67-2.83.66-4.9,2.78-6.5.2,1.68-.61,3.3-.56,4.95.02.84.16,4.52,1.49,4.34-.86-3.23,4.6-8.87.12-9.38l-.11-1.76c2.16-.22,3.5-1.55,3.73-3.73,5.08.28.11,4.1.03,4.38-.29.99-.58,4.27-.71,5.66-.09.93-.97,2.28.65,2.03.63-5.6,7.09-4.33,9.75-6.53,1-.82,2.05-3.69,3.3-5.07,4.3-4.75,9.66-10.75,14.25-15.04,2.04-1.9,5.42-5,8.04-5.89-7.52,8.65-16.28,18.63-22.14,28.52-3.86,6.53-3.08,6.78-4.51,13.13-.48,2.12-5.65,7.15-1.26,6.68,5.97-9.36,11.12-19.13,15.99-29.11.59-1.21,1.52-5.08,1.71-5.28,1.99-2.08,1.37.61,1.55.92,2.56,4.55-5.38,9.64-4.34,14.88,10.06-12.04,18.17-26.15,27.5-38.97,7.59-10.43,16.27-20.15,23.62-30.76-.79,3.28-3.19,6.55-4.98,9.42-10.02,16.07-22.64,30.44-32.19,46.85v1.38s3.71-.44,3.71-.44c-2.7,4.26-4.35,8.35-4.66,13.46h3.73s-1.4,8.37-1.4,8.37c6.81-6.13,10.46-17.73,15.83-24.15,1.17-1.4,2.25-.11,2.27.43.2,4.28-18.66,29.56-17.63,37.67,3.15-1.98,5.26-5.87,7.25-9.01,1.8-2.84,7.86-16.37,8.56-17.02.14-.13,2.15-.41,1.86.69l1.37,2.09,8.39-11.14c1.26,1.16-.31,3.5-.9,4.68-3.93,7.89-12.17,14.13-14.44,23.21,4.05-3.7,7-9.14,13.01-10.22l-10.22,17.2c-.64,2.5,2.29.46,2.51.18,2.83-3.47,8.26-12.54,10.7-16.76.7-1.22.46-2.96.72-3.42-.09.11-2.07.26-2.78.93-.67-.86,1.34-5.48,2.31-5.56,1.65-.14.61,4.45.47,4.63,3.84-6.77,7.17-11.91,12.54-17.68,4.72-5.08,10.09-9.45,15.35-13.93l-22.16,30.36-5.34,14.22,1.46,1.91c2.63-4.58,5.93-8.7,8.54-13.32,3.49-6.17,6.08-14.6,9.62-20.14.35-.55,1.41-1.64,1.35-.33l1.85,2.59c-3.68,4.07-6.73,9.48-7.41,14.92,1.69.46,2.41-3.31,3.5-4.87,8.83-12.72,16.79-26,25.5-38.66,4.46-6.49,11.05-12.24,15.19-19.21,2.73-.29.97,2.02.29,3.08-2.2,3.45-15.27,18.23-15.62,19.71-1.06,4.39,8.56-5.81,6.48-.96-1.08,2.51-7.34,6.07-9.31,8.36s-9.35,14.08-10.2,16.77c-.15.48-.26,1.52.45,1.37l3.25-3.71-4.65,13.53.14,3.07,3.59,1.07c.28,1.76.02,1.89-1.64,2.04l.72,2.6,7.43-7.9c.04,9.37-7.27,16.47-8.36,25.56,7.06-4.82,7.56-14.42,14.41-19.52,2.63,3.92-8.11,9.39-6.04,12.08,1.82-2.5,4.55-.98,5.62-1.42,2.59-1.07,2.49-8.04,3.31-9.76,1.09-2.28,5.65-5.73,5.95-9.27,1.78-.15.83,1.85.42,2.74-2.71,5.82-5.7,11.68-8.61,17.4.58,3.83,4.56,4.34,2.61,8.67,1.55-.78,1.82-3,3.22-4.67,3.18-3.77,7.53-6.09,10.69-9.76s4.6-8.25,7.93-11.59c1.18,2.37-1.38,4.44-1.49,7.01-.08,1.74,3.02,1.2,1.95,4.14l-2.77-.94c-.35,3.66-3.96,6.16-5.17,9.26-.32.83-1.3,3.93.5,3.76.02-1.1-.48-2.01.69-2.8,10.66-7.17,17.27-19.43,25.37-29.25,3.04-3.69,7.08-6.63,9.75-10.71,1.46.82-.31,2.1-.83,2.89-2.28,3.48-5.46,6.44-7.85,9.81s-16.02,22.86-14.09,25.41c4.75-.69,16.6-24.06,18.12-24.16,5.52-.36-6.55,12.74-4.65,13.92l19-21.91,3.78-.87-23.23,28.85.45,1.37,6.52-7.43-.31,2.68,1.69.57c-2.04,2.89-9.7,8.19-10.24,11.15-.25,1.35.02,1.7,1.39,1.39,2.47-.56,4.24-4.95,6.16-6.85,10.36-10.25,24.66-21.43,32.06-33.02,2.48-3.87,5.01-7.96,8.29-11.24l-6.04,11.63c-.17.63,4.7.51,3.71,3.23-1.62.22-6.29,3.01-7.52,4.1-1.72,1.53-1.97,4.25-4.04,6.21-1.95,1.84-4.75,2.46-6.96,4.2-6.21,4.86-10.87,11.69-10.3,19.91,7.07-1.93,6.44-11.6,11.62-15.8l-6.05,13.93c5.12-.26,15.08-15.87,11.16-2.79,4.9.36,7.97-5,8.38-9.28,1.54-.23,1,2.35,2.35,2.78,3.97,1.24,9.21-13.36,11.19-16.65,4.13-6.85,9.41-12.98,13.88-19.6.21,5.86-5.63,10.55-8.26,15.92-1.8,3.67-3.43,7.1-3.67,11.24-.06,1.04-1.19,1.32.76,2.57,6.5-4.48,18.52-5.74,21.87-12.99l2.25,1.8,10.8-7.84,8.31-.95c-1.46,2.76-5.27,3.01-6.97,4.17-5.82,3.98-7.43,6.73-14.12,9.1-5.11,1.81-17.47,5.55-15.63,12.32,2.14-.8,4.51-.66,6.54-1.83,2.81-1.62,5.13-7.42,6.25-8.16,1.91-1.27,5.44.13,7.13-.69,2.63-1.27,2.81-6.16,6.58-5.13l.44,1.84c11.93-6.4,19.19-18.39,30.22-26.02,1.15,1.28-7.65,8.81-8.83,10.22-3.45,4.07-10.42,13.15-11.91,16.94-.8,2.02-.68,4.2-.62,6.31.86.13,1.18.09,1.87-.44,2.84-2.18,8.72-18.09,9.74-18.13,3.4,4.16-2.92,10.24-4.48,15.03-.27.84-1.57,3.71.28,3.54.13-1.32.66-2.61,1.45-3.67,9.45-12.71,17.63-26.3,27-39.01,2.76-3.74,19.01-25.12,21.32-26.11,1.14-.49,1.75.21,1.37,1.37l-37.17,52.1c.16,3.77,2.75-3.01,3.69-2.34l.98,3.14c-5.29,3.22-4.98,8.91-4.68,14.52l3.71-1.85-1.4,7.43c2.25-1.86,3.49-6.86,5.06-8.69.79-.92,2.16-.29,2.91-1.19,1.38-1.65,3.72-7.5,5.55-9.87.74-.95,2.72-2.49,3.68-3.49-2.96,9.66-10.2,17.75-14.1,27.26-1.55,3.77-2.72,7.8-3.54,11.79,4.22-.32,16.67-29.26,17.65-27.89l.02,3.72c1.98,2.73,17.51-22.63,19.06-24.17,1.39.73-.21,2.24-.66,3.05-7.12,12.89-17.12,23.53-23.04,36.92,4.13-2.17,2.86-6.99,7.92-6.38l7.88-7.56c-3.42,6.99-8.92,12.74-12.29,19.78-.39.82-1.73,3.56.19,3.45,4.55-10.88,15.02-18.45,22.8-26.95,2.83-3.09,4.35-7.44,8.36-9.3,1.86,1.7-1.59,2.29-2.36,3.46l-7.4,14.2c2.36-.21,4.47-6.07,4.78-6.33.58-.49,2.25.1,3.3-.47,3.18-1.71,3.73-12.44,8.64-14.58.09,1.68.81,1.56.07,3.22-3.5,7.84-9.39,13.75-13.07,21.44l2.77.45-.51,4.6,1.43,1.9c1.95-3.79,3.62-8.89,5.74-12.4.89-1.47,5.29-5.55,5.39-5.94,3.16-11.81,7.12-24.37,11.35-35.81.97-2.63,3.41-5.71,4.97-8.13l-14.43,42.29.48,1.4c3.46-3.23,4.99-7.99,7.5-12.02.99-1.59,2.9-2.62,3.99-4.38,4.55-7.38,5.67-18.72,6.66-27.29,1.66-.16.98,3.13.91,4.16-.3,4.05-1.33,9.6-2.15,13.66-1.02,5.09-3.07,10.26-4.35,14.71-.05-.92.05-1.87,0-2.79-.65-.77-8.14,12.59-8.88,13.89-.61,1.07-2.08,1.77-2.67,2.91-.67,1.31-2.89,10.25-2.32,11.01,1.89,1.8,7.98-1.05,8.79-2.69.99-1.99.17-5.25.68-7.69,1.04-5.05,3.14-10.22,4.42-14.65.38,6.83-2.31,10.58-2.69,16.38-.09,1.39-.77,2.58,1.29,2.21l31.15-34.39-6.49,11.63,5.57-2.32c.35,5.8-6.57,6.87-5.57,13.02,5.33-1.77-.06,1.33-.76,2.46-1.22,1.99-5.27,12.66-3.89,14.26l3.21-.9,1.43,2.29c-2.98,2.93-6.22,6.08-7.42,10.28-1.02,3.59.7.47.99.28,10.68-7.06,8.99-20.19,18.06-28.67,2.07-.82.87,2.57.76,2.77-.92,1.62-2.59,2.88-3.45,4.77-2.48,5.45-4.18,11.39-4.97,17.35-.13,1.01-1.03,3.2.67,2.99-.54-3.09,2.94-3.77,3.53-5.27,3.08-7.81,4.31-17.25,6.65-24.92,3.28-10.73,7.03-21.52,10.74-32.09,1.8,1.18.86,1.84.59,3.3-3.25,17.77-11.58,35.59-14.99,53.42,3.21-.95,10.63-15.71,11.61-15.79,3.77-.29-2.73,7.54-1.39,9.28,5.03-1.42,3.02-9.68,8.35-12.09l-.99,3.2,1.93.97c-3.24,6.39-7.65,12.7-8.36,19.99l1.86-4.64,2.78,2.77c3.6-6.56,4.1-14.62,8.85-20.44.99.61.47,2.96.24,3.96-.32,1.34-6.87,18.74-1.18,17.42,2.81-5.73,5.81-12.12,7.93-18.11,1.76-4.98,2.47-10.99,4.21-15.36.6-1.49-.1-2.28,2.27-1.86l-8.35,41.39,1.83.44c2.41-5.82,5.01-14.86,8.54-19.87,1.91-2.71,6.26-4.55,7.27-8.49,3.58-1.81,12.35-14.38,14.44-15.33.49-.22,1.57-.18,1.38.45-7.07,11.31-17.31,18.76-22.63,31.39-.49,1.17.23,2.77-.21,3.52-.6,1-3.51.72-2.25,4.61,1.43,1.66,6.58-6.23,7.39-7.01,7.63-7.41,20.04-21.66,27.47-27.38.83-.64,10.97-7.11,10.67-3.26-.08,1.02-2.7,1.15-3.38,1.72-4,3.37-6.96,7.75-8.89,10.57-.24.34-4.85,2.44-6.23,3.6-5.96,5.01-11.14,11.71-9.85,19.9,6.29-3.4,6.12-11.47,11.17-15.8l-5.11,13.01c3.31-.38,3.61-4.37,7.43-1.85-.22-2.4.29-4.21,2.35-5.58l1.85,5.4c4.22.66,4.99-5.7,6.98-6.86,1.29-.76,3.04,1.08,4.63.12,1.89-1.14,9.15-16.8,11.34-20.34,3.35-5.42,7.45-10.55,11.45-15.51,1.01,4.55-3.5,7.26-5.3,10.5-2.7,4.85-4.84,10.07-7.24,15.07l2.79.92-2.79,4.18c7.88-4.03,15.73-8.05,23.53-12.26,1.91-1.03,4.31-1.14,6.15-2.22,2.12-1.25,3.51-4.2,5.95-5.3,1.24-.56,6.78-1.26,8.06-1.15-1.67,2.9-4.82,3.51-6.97,5.12-2.84,2.12-6.85,6.15-9.82,7.88-1.02.59-3.98-.7-4.59,2.35,4.85.28,7.52-2.32,10.81-5.51l3.12,1.8c1.89-6.44,13.43-9.85,7.45,0l3.68.08.05,2.73,6.5-2.79-1.85,5.57,2.78-.47c-1.97,1.59-4.1,1.12-4.64,4.18h1.84c-.48-3.04,3.78-2.11,4.51-2.95.36-.41.29-2.91.88-4.21,1.71-3.8,3.9-7.98,6.26-11.42l-3.25,12.08c6.12.24,7.27-6.32,10.36-10.55,1.41-1.93,3.41-3.17,5.25-5.91,5.18-7.68,7.16-17.85,13.19-24.45l-17.65,40.91c3.71,1.04,9.64-15.53,12.08-13.01-1.84,5-4.33,9.38-4.64,14.87,2.26-1.25,4.2-1.23,6.47,0,1.05-5.28,4.01-8.67,7.94-12.08.39,4.8-5.59,7.68-4.18,13.01,2.4.9,1.61-1.52,2.29-1.69.75-.19,3.79.76,4.07.58.41-.27,4.1-6.04,5.25-7.27l15.35-14.85c-3.54,9.44-15.88,19.79-18.8,29.07-1.06,3.36-2,9.13-2.12,12.76,7.23-10.12,13.01-21.15,18.28-32.38l3.57-.15-5.57,9.76h2.79c15.55-22.4,30.38-45.89,49.25-65.56l-10.25,15.1c-10.16,12.41-19.86,25.42-27.77,39.44l1.82,1.73-3.67,12.93,4.55,1.47-1.61,2.03c1.46,2.72-3.07.78.21,3.52,2.45-1.97,2.78-4.59,6.08-5.26l10.2-16.57c-3.4,13.44-14.85,24.25-16.74,38.58.98-.38,2.16-.78,2.82-1.6,4.53-5.67,8.82-18.58,12.98-23.04.87-.93,1.31-1.7,2.79-1.39l1.84,2.78,7.47-12.07c1.01-.22,2.45-.27,1.83,1.37-1.25,3.31-9.53,11.33-11.92,15.05-1.86,2.9-3.72,7.22-4.79,10.54,3.13-3.14,6.32-7.04,11.15-7.43l-6.05,13c2.45-2.32,3.82-5.4,6-7.95,4.42-5.17,10.13-9.32,15.53-14.68,1.57-1.56,2.34-4.77,4.51-6.19,1.57,5.23-4.82,8.44-6.04,13.49,2.34,1.91,1.79-1.37,2.79-2.57,2.1-2.53,5.89-3.1,6.58-4.1,4.08-5.94,2.09-15.11,4.58-21.69,1.59-.17,1.02,3.21.96,4.21-.11,1.91-.69,3.61-1.04,5.45l1.92.98c-1.92,9.18-7.98,13.65-12.06,21.45l3.7.46c.39,1.54-1.34.49-1.68,1.34-.19.47-.66,7.47,1.67,5.16,1.93-5.26,5.75-9.84,5.6-15.82l2.82.47,16.71-43.23c1.73-.18.93,3.07.7,3.96-3.29,12.89-11.28,25.65-13.72,38.81,2.27-.88,1.94-3.82,3.25-5.59,1.71-2.31,4.47-2.31,4.19-7.43l1.77.88c2.76-8.06,8.46-15.27,8.45-24.13,1.6-.23.99,2.2.91,3.23-.42,5.42-2.68,12.3-5.2,17.12-4.43,8.48-13.59,16.64-12.45,27.07,12.23,1.87,6.63-13.81,11.63-20.45.76,4.31-1.84,9.24-1.43,13.46.13,1.4.47,2.42,1.88,1.39l26.97-30.67c-1.46,2.44.85,6.9.77,7.74-.14,1.53-2.46,3.46-3.08,5.28-2.23,6.49-3.72,13.44-6.1,19.92,11.23,2.36-1.86,7.07-1.81,13.54,1.78.32,2.52-.29,3.78-1.33,3.55-2.93,12.04-25.19,13.42-25.65,1.01-.34,2.98-.28,2.32,1.4-5.01,6.99-8.09,16.01-7.9,24.65,3.75-6.3,6.33-13.3,8.66-20.25.68-2.04.26-3.84.82-5.52,3.68-11.16,8.44-22.07,10.52-33.73l1.71,1.23-14.73,51.76c1.54,1.66,10.04-10.45,10.7-12.07,4.4.44-2.08,3.93-.47,5.57,3.75-.1,4.4-5.36,5.57-8.36-.52-.19-1.89.47-1.85-.45l6.49-12.57c-1.79,4.23-2.98,8.75-4.64,13.02,1.26.47,2.71-.07,2.77,2.26.13,5.38-8.47,12.63-6.48,19.12,1.6,2.21,6.61-15.49,7.27-16.43l9.45-18.89c-2.26,10.27-7.35,20.77-7.14,31.38.01.68-.91,3.08,1.1,2.08,3.22-1.6,13.68-29.19,14.43-34.39,7.19,5.22.69,9.18.05,15.41-.19,1.84.16,1.35,1.79,1.32l2.93-8.7,6.37-9.89c-2.62,10.34-8.09,19.92-10.03,30.48-.3,1.62.59,3.05.44,4.25-.07.59-3.63,10.36-.18,8.95s10.15-22.81,16.28-25.1c-1.32,7.63-9.95,12.99-9.28,21.38l3.45-1.18,22.56-32.28c.33,8.01-6.48,13.86-7.44,21.83,6.3,1.15,1.41,2.92,1.01,3.96-.62,1.63-1.43,4.78-1.68,6.52-.18,1.21-1.18,5.55.68,5.8,2.58-6.92,4.48-13.2,9.78-18.59,1.46-1.49,4.1-2.17,5.51-3.79,3.24-3.7,4.07-11.76,9.52-14.19l13.79-20.14.45,1.38c-5.56,5.7-8.55,13.14-12.08,20,1.28-.16,3.08.33,1.84,1.84-.06.08-1.31-.24-1.8.71-1.59,3.11-1.98,7.51-5.61,9.53.06-4.63,3.72-8.49,5.57-12.08-4.8.61-4.91,7.91-8.37,10.7l1.94,1.79-1.94,7.96,6.5-2.78-2.78,10.22c1.27,1.74,15.21-18.95,17.65-19.52-2.04,10.36-9.38,19.63-11.14,29.75l7.95-13.89c3.41-1.09,8.55-9.37,10.26-10.2.42-.21,2.24-.44,2.24.38-2.7,4.71-10.41,10.34-11.14,15.84-.24,1.8,1.24,1.98,1.84,1.37.43-.44,2.84-6.11,4.63-7.94,1.21-1.24,2.95-1.04,3.5-1.59,1.5-1.48,3.22-11.23,7.22-12.77.99,3.16-3.48,5.63-4.49,8.36-.62,1.68-.05,5.16-1.36,7.18l3.52,4.45-1.88.92,1.87,2.32c1.17-7.12,10.16-9.79,13.97-14.39,2.45-2.95,2.82-7.89,6.48-9.78-.24,8.88-5.16,14.92-8.35,22.79l1.84.45c-.58-6.59,4.35-5.85,7.39-8.88,4.69-4.67,7.58-12.63,14.01-16.23v3.72c-3.76,1.17-8.21,9.08-8.4,12.54-.14,2.65,2.83,1.26,4.11.38,3.35-2.31,1.09-7.85,4.29-5.47v269.64H0v-262.2ZM330.07,561.6l4.46,6.82c-.28,2.9-6.6,7.96-8.18,10.37-.83,1.26-.74,2.28.46,2.3,1.75.03,8.36-8.22,11.38-8.75l.23-11.68-2.36,2.79-6-1.85ZM296.59,587.63c-3.76.58-7.25,1.96-10.52,3.88-1.18.7-10.51,7.71-9,9.13l18.9-10.18.61-2.83ZM267.78,780.1c-1.99-.44-2.12.98-2.96,2.15-19.47,27.14-33.58,58.09-55.62,82.92-3.24,3.65-4.95,9.36-8.36,13.03-.27,2.63,1.15.75,1.87,0,2.76-2.88,4.55-9.21,9.29-8.38-2.21,7.85-9.93,12.36-11.16,20.91,3.15-1.33,3.28-5.06,4.97-7.58,1.87-2.8,4.24-4.92,5.99-7.95,2.89-5.01,3.04-12.13,9.48-13.29l-3.68,8.75c.4,1.59,4.79,1.14,5.99.59,3.14-6.67,8.48-11.31,11.98-17.84,4.57-8.51,7.32-18.82,13.14-26.84,2.4-.56.55,2.14.21,3.01-2.88,7.31-8.92,15.28-8.6,23.02l5.59-5.57c.88,2.92-3.79,5.99-5.53,8.42-2.99,4.19-13.66,19.81-14.41,23.71-.31,1.61,0,3.41-.05,5.05l17.19-27.87c.78.72,1.38.93,1.26,2.14-.35,3.86-8.25,12.04-6.85,17.36,4.51-8.88,13.87-17.59,16.74-26.96,1.49-4.87,2.78-11.44,3.89-16.56,3.74-17.26,6.19-34.91,9.59-52.23ZM833.09,882.36l6.88-8.46,7.05-17.58-13,15.35,1.87.91-3.74,4.68,1.96,1.01-1.01,4.09ZM150.62,857.26c-1.97-1.77-12.39,5.66-11.15,9.29,1.05,1.15,12.79-7.81,11.15-9.29ZM1542.52,881.43c6.97-5.91,9.07-15.02,12.07-23.24-5.34,7.04-14.47,13.41-12.07,23.24ZM1863.29,900.02c1.57,1.8,6.38-8.55,6.71-9.55,1.04-3.13.57-6.62,1.36-9.04,1.98-6.08,9.89-13.52,9.58-21.38l-9.74,11.24c-1.6,2.31.23,5.32-3.26,6.42l-.94-1.4-5.57,8.38c4.27,1.27,6.72-6.39,10.21-7.91-1.02,8.52-8.25,14.46-8.35,23.24ZM1134.33,871.2c1.31,1.26,7.28-6.3,6.5-8.36-3.12,1.97-5.53,4.78-6.5,8.36ZM618.27,869.33l.96-5.55-3.7,5.11,2.75.44ZM642.36,874.8c.48-5.23,6.11-6.35,6.62-11.03l-9.28,10.7,2.66.33ZM1116.59,866.48l-.84-2.7c.41,2.99-3.35,1.68-3.72,3.7l4.57-1ZM138.54,864.71c-2.35,1.05-5.17,2.1-7.42,3.26-1.07.55-2.57.86-2.8,2.3,5.28,1.79,7.21-1.79,10.23-5.56ZM610.87,871.2c1.37,1.12,4.16-3.02,3.71-4.64l-3.71,4.64ZM631.84,869.88c.64-1.08,1.76-1.76,1.34-3.33l-3.73,2.49.03,3.08c.6.07,2.18-1.94,2.36-2.25ZM1109.21,874.92l1.87-6.5-3.7,6.05,1.83.45ZM141.33,869.36c-1.99-1.18-6.43,5.53-6.51,7.42,3.77.81,2.96-3.7,6.48-2.8l.03-4.62ZM630.38,891.65l6.07-11.13,3.23-11.18c-3.92,4.41-8.64,13.72-9.81,19.48-.19.95-1.2,3.06.51,2.83ZM1106.44,869.35c-1.17-1.39-7.42,7.36-6.49,8.36,3.79-2.09,7.63-3.14,6.49-8.36ZM1431.86,869.36c-4.93.49-6.77,4.86-8.36,8.87l1.81.45.04,1.35c-3.38,2.25-6.85,6.94-6.5,11.16l-1.85-.47,1.4,2.79,11.19-14.9c-.3-3.88.08-5.95,2.28-9.25ZM127.38,870.29c-1.64-1.27-16.53,6.16-13.94,11.14,7.98-.39,9.99-5.46,13.94-11.14ZM1092.49,870.29c-1.05-.84-17.92,6.09-13.94,11.15,7.99-.42,9.98-5.45,13.94-11.15ZM1683.84,870.29c-5.26,2.2-14.46,4.07-13.94,11.14,7.61-.43,10.42-5.31,13.94-11.14ZM1697.78,870.28c-1.18-1.37-6.04,4.89-6.5,6.05l3.7.92-3.09,2.57-8.04,14.63c1.62,1.83,12.07-14.44,12.55-15.87.84-2.51-.27-2.81-.35-4.18-.02-.25,3.06-.94,1.74-4.13ZM1152,871.21c-1.06-.94-6.18,3.05-6.51,4.63,2.79-.38,5.85-1.67,6.51-4.63ZM1178.97,888.87c4.31-4.54,8.98-11.32,10.21-17.66l-1.86,4.65-1.71-.81c-.62.4-1.75,4.52-2.51,5.5s-1.86-.28-2.33.46c-1.08,1.7-1.8,5.73-1.8,7.86ZM1167.82,876.78c1.73-.68,2.87-2.99,2.77-4.65-1.73.68-2.87,2.99-2.77,4.65ZM621.09,873.07c-1.76-1.61-9.11,5.44-7.42,8.36,1.24-.64,8.58-7.31,7.42-8.36ZM1746.13,873.07l-4.18,3.71-1.38-1.85c.25,6.05-4.1,11.26-6.52,16.72,2.09.06,2.05.68,3.03-1.16,1.39-2.6,2.31-6.12,3.93-9.07s4.14-5.27,5.12-8.35ZM1751.72,884.22c1.99-.82,6.33-10.11,5.56-11.16l-3.7.94,1.85,1.38-3.7,8.84ZM222.22,874l-4.57,3.42-3.8,9.59c5.71-1.27,4.96-9.17,8.36-13ZM721.51,874l-2.8.61-.91,4.96,3.71-5.57ZM127.64,876.12c-.73.71-.76,3.93-3.54,4.36-1.18.84.32,2.68.97,2.81,2.94.59,6.47-5.67,6.01-8.37-.97.69-2.86.63-3.45,1.2ZM1087.85,883.28c5.52,1.18,7.95-3.62,8.36-8.36-1.78.11-9.02,7.87-8.36,8.36ZM1420.7,874.93c-1.63-.33-2.3.84-3.26,1.84-.72.75-5.72,6.82-5.09,7.45,5.24-.83,8.02-3.89,8.35-9.29ZM628.52,875.85c-1.23.79-4.9,4.15-2.32,5.56l2.32-5.56ZM825.66,886.08c2.82-2.34,5.39-6.52,5.56-10.23-2.98,2.08-5.72,6.6-5.56,10.23ZM1168.73,890.73c-.55-4.59,2.13-8.28,4.28-12.01.85-1.48,2.1-1.17-.09-2.85l-6.84,12.69,2.65,2.17ZM1688.48,875.86l-1.87,2.79-2.64-.87-4.8,5.5,4.64-1.85.47,1.85,4.19-7.43ZM1928.36,887.94l3.72-12.08-4.2,9.27.48,2.8ZM139.06,880.12c.53-.82,2.32-2.42.88-3.32-1.08.91-2.57.96-3.73,1.85-2.11,1.6-8.43,10.96-6.03,13.02,3.99-3.02,6.21-7.41,8.88-11.54ZM1535.98,886.08l3.73-9.29c-3.65,1.6-3.31,6.09-5.56,8.84l1.83.45ZM668.52,892.59c3.3-3.84,4.51-10.15,6.49-14.88-4.2,3.29-5.07,9.95-6.49,14.88ZM1106.44,877.72c-7.12-1.25-8.72,6.63-12.09,11.14,6.46.7,7.6-7.67,12.09-11.14ZM1137.3,882.51c-.88,1.41.53,4.05,1.69,3.13l2.77-7.92c-.72,1.57-4.29,4.5-4.46,4.79ZM1177.1,878.65l-4.86,6.75-.71,5.33c2.36.52,1.62-.61,2.41-1.74,1.86-2.68,4.33-7.09,3.16-10.33ZM1711.73,878.65c-1.8-1.79-4.13,5.47-3.71,6.49l3.71-6.49ZM172.02,885.15c1.73-.68,2.87-2.99,2.77-4.65-1.73.68-2.87,2.99-2.77,4.65ZM597.85,889.8c3.99.55,5.48-3.69,5.87-6.7.87-6.72-8.02,4.38-5.87,6.7ZM1064.61,889.8c5.14-.36,6.25-4.92,6.49-9.29-2.85,2.39-7.17,4.92-6.49,9.29ZM105.99,881.44c-2.27-2.09-8.82,7.66-5.1,8.36,3.81-.93,4.57-5.12,5.1-8.36ZM467.69,887.01c2.08-.8,2.89-3.52,2.77-5.58-.65-.86-3.27,4.47-2.77,5.58ZM1395.6,881.44l-3.57.15-3.86,7.28,3.12.76,1.11-.64,3.2-7.54ZM1663.38,881.44c-3.98-.56-4.15,2.55-5.58,4.92-.58.96-3.59.4-.94,2.99,4.72,1.19,4.85-4.93,6.52-7.91ZM1971.15,887.01c2.08-.8,2.89-3.52,2.77-5.58-.65-.86-3.27,4.47-2.77,5.58ZM716.86,882.37h-1.84s-.94,3.71-.94,3.71l2.78-3.71ZM1408.61,882.36c-1.8,1.13-5.47,3.44-2.31,5.56l2.31-5.56ZM1545.29,882.37c-1.99-.43-2.11,1.02-2.94,2.16-3.53,4.82-6.13,9.29-6.35,15.5,1.61.3,2.41-.77,3.18-1.93,2.75-4.17,4.02-11.07,6.11-15.73ZM116.23,884.23c.26,4.08,3.26,2.93,2.78-.94l-2.78.94ZM791.25,890.73c2.4-1.14,2.44-5.17,2.77-7.44-2.52,1.19-2.74,5.03-2.77,7.44ZM835.87,883.3c-1.72-1.52-7.13,7.29-7.65,8.62-.46,1.16-2.23,7.74-.24,8.11,3.02.57,4.95-11.85,5.73-13.76.38-.94,3.74-1.58,2.16-2.97ZM1085.05,883.3c-3.58-.56-4.03,1.66-3.71,4.64.41-.43,4.76-3.79,3.71-4.64ZM1675.35,885.98l-.34-2.68c-1.13,1.21-2.7,1.94-2.32,3.71l2.66-1.03ZM1830.74,884.23c-2.57-.49-3.42,4.89-3.71,6.49,3.7.16,2.36-4.32,3.71-6.49ZM1503.46,885.16l-2.8.62.48,4.95,2.32-5.56ZM1138.98,887.02c-2.59-.65-5.23,6.67-4.64,7.43,3.39-.7,3.73-4.59,4.64-7.43ZM69.74,898.17c1.29-.81,10.74-7.69,9.28-9.3-1.56,1.54-10.86,7.33-9.28,9.3ZM1626.2,899.1c1.38-.86,9.47-8.09,8.35-9.3-3.57,1.46-6.88,5.7-8.35,9.3ZM575.53,890.74c-3.31.37-7.7,3.79-7.43,7.43l7.43-7.43ZM1096.21,893.51l-2.32-2.76-1.39,1.38,3.71,1.38ZM1366.78,890.74c-3.08.32-8.33,5.08-8.36,8.36l8.36-8.36Z"/>
  <path d="M2047.38,874.92v7.44c-3.2-2.38-.93,3.16-4.29,5.47-1.28.89-4.26,2.27-4.11-.38.19-3.46,4.64-11.37,8.4-12.54Z"/>
  <path class="cls-1" d="M0,834.01c4.92-1,.38,2.22,3.27,1.89s4.31-1.18,6.96-1.88c-2.4,3.36-5.61,7.08-10.23,6.5v-6.51Z"/>
  <path class="cls-1" d="M0,865.63c6.13-1.86,6.06-10.4,12.1-12.54-2.97,4.34-5.38,9.42-9.03,13.25-1.47,1.54-.95,1.52-3.07.22v-.93Z"/>
  <path class="cls-1" d="M0,880.5l6.51-1.87v-6.5c1.98.88,1.01,6.74.07,7.97s-3.7,1.37-3.74,3.67l-2.84.44v-3.72Z"/>
  <path class="cls-1" d="M150.62,835.88c-7.76,8.54-18.71,15.03-27,22.73-3.51,3.26-6.52,8.25-10.65,11.66-1.05.87-1.5,2.26-3.25,1.85-2.13-2.18,12.76-12.89,13.93-15.35l26.97-20.9Z"/>
  <path class="cls-1" d="M3.73,834.94c-1.84-4.31,1.37-4.42,3.14-6.61,4.47-5.55,7.97-12.17,13.58-16.63.48,1.86-.61,2.52-1.35,3.76-3.78,6.34-10.93,13.32-15.37,19.49Z"/>
  <path class="cls-1" d="M1099.93,848.9c-4.19,4.86-9.33,7.84-13.97,12.52-3.27,3.3-5.37,6.93-8.77,9.79-.59.5-3.13,2.05-3.28,1.86.3-6.12,8.25-7.49,10.54-12.69l15.48-11.47Z"/>
  <path class="cls-1" d="M1685.69,853.55c-4.03,5.04-9.03,9.29-13.38,14.03-1.95,2.13-2.27,5.77-6.14,5.48-.87-4.69,3.97-5.82,6.11-7.79,3.41-3.15,6.62-6.89,10.16-9.87,1.04-.88,1.51-2.25,3.26-1.85Z"/>
  <path class="cls-1" d="M1605.74,878.64l-.83-3.55c4.71-2.14,6.05-8.39,10.1-11.32-1.27,5.82-4.16,11.59-9.28,14.87Z"/>
  <path class="cls-1" d="M2005.54,835.87h2.11c3.78,1.43-7.47,4.46-8.16,6.51-.89-.07-.53-1.52-.28-2.14.68-1.7,16.54-22.11,17.48-21.1-.44,3.13-13.39,14.47-11.15,16.73Z"/>
  <path class="cls-1" d="M156.19,843.31c-1.67.22-.85-2.03-.69-3.01.49-3.08,1.97-6.06,1.87-9.29l6.26-13.72c-.66,9.23-7.1,16.44-7.44,26.02Z"/>
  <path class="cls-1" d="M1580.63,871.2l9.29-16.72c.26,1.62-.19,2.9-.71,4.39-.43,1.22-6.54,14.39-8.57,12.34Z"/>
  <path class="cls-1" d="M1287.75,869.34c-.66-.66,4.77-6.89,5.6-7.88,2.17-2.61,4.95-5.56,7.41-7.93-1.66,4.61-6.54,10.08-10.03,13.67-.91.93-.91,2.63-2.97,2.13Z"/>
  <path class="cls-1" d="M1510.9,860.04l3.7-18.59-.36,13.95c-.56,1.88-.52,4.95-3.35,4.63Z"/>
  <path class="cls-1" d="M1419.77,852.62l-14.86,14.87c.61-4.3,7.75-11.09,11.1-13.53,1.26-.92,1.93-1.75,3.76-1.34Z"/>
  <polygon class="cls-1" points="1644.79 857.26 1649.03 848.95 1654.07 844.24 1647.98 854.41 1644.79 857.26"/>
  <path class="cls-1" d="M1617.81,851.68c-1.19,4.31-5.3,7.6-7.89,11.14-2.09-1.67-1.15-1.31,0-2.77,2.11-2.68,5.49-5.79,7.9-8.37Z"/>
  <path class="cls-1" d="M657.36,850.76c-4.37,3.24-9.67,6.77-14.88,8.35,2.98-4.77,9.91-6.09,14.88-8.35Z"/>
  <path class="cls-1" d="M1403.97,865.63c.47,6.77-8.13,10.24-2.29,1.86.7-1.01-.27-2.44,2.29-1.86Z"/>
  <path class="cls-1" d="M1615.96,879.57c.1-.09-.07-1.54.91-2.34,2.15-1.73,2.83,1.19.95,2.84l-1.86-.51c.32,2.89-.16,5.23-3.71,4.64-.98-3.96,2.82-3.85,3.71-4.64Z"/>
  <polygon class="cls-1" points="451.86 871.2 450.99 868.01 453.72 860.05 451.86 871.2"/>
  <path class="cls-1" d="M1350.97,876.79c.2,8.96-5.37,1.56-1.38,0h1.38Z"/>
  <path class="cls-1" d="M1112.02,838.67c-2.94,2.78-6.48,6.92-10.23,8.35,2.43-3.36,6.24-6.92,10.23-8.35Z"/>
  <path class="cls-1" d="M1736.84,841.45l4.63-7.44c-.37,2.72-2.16,6.15-4.63,7.44Z"/>
  <path class="cls-1" d="M1496.02,866.57c-1.23,1.89-1.68,5.77-4.65,5.56,1.59-1.7,1.7-5.77,4.65-5.56Z"/>
  <path class="cls-1" d="M930.72,878.64c-.02-2.04-.53-4.86,1.84-5.58.02,2.04.53,4.86-1.84,5.58Z"/>
  <path class="cls-1" d="M1428.14,845.18c.3.26-4.39,5.68-5.58,4.63.45-1.17,4.48-5.6,5.58-4.63Z"/>
  <path class="cls-1" d="M651.78,833.09l-9.3,7.42c-.55-.52,7.43-7.71,9.3-7.42Z"/>
  <path class="cls-1" d="M831.22,828.43c-1.99-.92-1.1-7.79.93-8.36l-.93,8.36Z"/>
  <path class="cls-1" d="M1727.54,856.33c-.05-2.2,1.76-4.65,3.7-5.58-.11,1.99-2.03,4.56-3.7,5.58Z"/>
  <path class="cls-1" d="M464.88,879.57h-.91c-.05-1.98-.55-4.82,1.84-5.57l-.93,5.57Z"/>
  <path class="cls-1" d="M1022.77,856.33c-.34-2.09.83-3.9,2.77-4.65.1,1.66-1.04,3.97-2.77,4.65Z"/>
  <path class="cls-1" d="M519.76,841.45c-.24-1.95,2-3.66,3.7-4.65.24,1.95-2,3.66-3.7,4.65Z"/>
  <path class="cls-1" d="M796.83,794.03c-.24-1.95,2-3.66,3.7-4.65.24,1.95-2,3.66-3.7,4.65Z"/>
  <path class="cls-1" d="M625.73,834.94c-1.9-.05-.48-6.44.93-6.5l-.93,6.5Z"/>
  <path class="cls-1" d="M721.52,840.52c-.24-1.95,2-3.66,3.7-4.65.24,1.95-2,3.66-3.7,4.65Z"/>
  <path class="cls-1" d="M1499.75,846.1c-.24-1.95,2-3.66,3.7-4.65.24,1.95-2,3.66-3.7,4.65Z"/>
  <path class="cls-1" d="M1744.28,830.3c-.1-1.66,1.04-3.97,2.77-4.65.1,1.66-1.04,3.97-2.77,4.65Z"/>
  <path class="cls-1" d="M1043.22,887.95l-3.71,3.71c-.24-1.85,1.71-3.91,3.71-3.71Z"/>
  <path class="cls-1" d="M57.65,854.46l3.71-3.71c.2,2-1.86,3.95-3.71,3.71Z"/>
  <path class="cls-1" d="M1191.06,836.8c-.31-1.68,1.26-3.05,2.77-3.72.31,1.68-1.26,3.05-2.77,3.72Z"/>
  <polygon class="cls-1" points="1540.64 825.64 1538.79 825.64 1539.73 821.93 1540.64 821.93 1540.64 825.64"/>
  <path class="cls-1" d="M1748.93,822.86c-.31-1.68,1.26-3.05,2.77-3.72.31,1.68-1.26,3.05-2.77,3.72Z"/>
  <path class="cls-1" d="M1710.81,864.7c-.31-1.68,1.26-3.05,2.77-3.72.31,1.68-1.26,3.05-2.77,3.72Z"/>
  <polygon class="cls-1" points="710.35 869.35 710.34 870.73 708.5 872.14 707.56 869.36 710.35 869.35"/>
  <path class="cls-1" d="M1694.06,847.04c-.67,1.51-2.04,3.08-3.72,2.77.67-1.51,2.04-3.08,3.72-2.77Z"/>
  <rect class="cls-1" x="154.35" y="844.25" width=".91" height="5.57"/>
  <path d="M267.78,780.1c-3.4,17.33-5.85,34.97-9.59,52.23-1.11,5.13-2.4,11.69-3.89,16.56-2.87,9.37-12.23,18.08-16.74,26.96-1.4-5.31,6.49-13.5,6.85-17.36.11-1.22-.48-1.42-1.26-2.14l-17.19,27.87c.05-1.64-.26-3.44.05-5.05.74-3.91,11.42-19.52,14.41-23.71,1.73-2.43,6.41-5.5,5.53-8.42l-5.59,5.57c-.32-7.74,5.72-15.7,8.6-23.02.34-.87,2.18-3.57-.21-3.01-5.83,8.02-8.58,18.33-13.14,26.84-3.5,6.53-8.84,11.17-11.98,17.84-1.2.55-5.59.99-5.99-.59l3.68-8.75c-6.44,1.15-6.6,8.27-9.48,13.29-1.75,3.04-4.12,5.15-5.99,7.95-1.68,2.52-1.82,6.24-4.97,7.58,1.23-8.55,8.95-13.06,11.16-20.91-4.74-.83-6.53,5.5-9.29,8.38-.72.75-2.14,2.62-1.87,0,3.41-3.66,5.12-9.38,8.36-13.03,22.04-24.83,36.15-55.78,55.62-82.92.83-1.16.96-2.59,2.96-2.15Z"/>
  <polygon points="833.09 882.36 834.1 878.28 832.15 877.27 835.88 872.58 834.02 871.68 847.02 856.33 839.97 873.91 833.09 882.36"/>
  <path d="M1431.86,869.36c-2.2,3.3-2.58,5.38-2.28,9.25l-11.19,14.9-1.4-2.79,1.85.47c-.35-4.23,3.13-8.91,6.5-11.16l-.04-1.35-1.81-.45c1.59-4.01,3.44-8.38,8.36-8.87Z"/>
  <path d="M1542.52,881.43c-2.4-9.84,6.73-16.2,12.07-23.24-3,8.22-5.09,17.34-12.07,23.24Z"/>
  <path d="M1863.29,900.02c.1-8.78,7.34-14.72,8.35-23.24-3.5,1.52-5.94,9.18-10.21,7.91l5.57-8.38.94,1.4c3.49-1.09,1.65-4.11,3.26-6.42l9.74-11.24c.31,7.87-7.6,15.3-9.58,21.38-.79,2.42-.33,5.91-1.36,9.04-.33,1-5.14,11.35-6.71,9.55Z"/>
  <path d="M330.07,561.6l6,1.85,2.36-2.79-.23,11.68c-3.03.53-9.63,8.78-11.38,8.75-1.2-.02-1.29-1.04-.46-2.3,1.59-2.41,7.9-7.47,8.18-10.37l-4.46-6.82Z"/>
  <path d="M1697.78,870.28c1.32,3.19-1.76,3.87-1.74,4.13.08,1.37,1.2,1.66.35,4.18-.48,1.43-10.92,17.69-12.55,15.87l8.04-14.63,3.09-2.57-3.7-.92c.45-1.15,5.32-7.41,6.5-6.05Z"/>
  <path d="M296.59,587.63l-.61,2.83-18.9,10.18c-1.51-1.41,7.81-8.43,9-9.13,3.27-1.93,6.75-3.3,10.52-3.88Z"/>
  <path d="M1092.49,870.29c-3.96,5.7-5.95,10.73-13.94,11.15-3.98-5.06,12.89-11.99,13.94-11.15Z"/>
  <path d="M127.38,870.29c-3.95,5.68-5.96,10.76-13.94,11.14-2.59-4.99,12.3-12.42,13.94-11.14Z"/>
  <path d="M1683.84,870.29c-3.52,5.83-6.33,10.72-13.94,11.14-.52-7.07,8.68-8.94,13.94-11.14Z"/>
  <path d="M1545.29,882.37c-2.1,4.66-3.36,11.56-6.11,15.73-.76,1.16-1.56,2.23-3.18,1.93.21-6.21,2.81-10.68,6.35-15.5.84-1.14.95-2.6,2.94-2.16Z"/>
  <path d="M139.06,880.12c-2.67,4.13-4.88,8.52-8.88,11.54-2.4-2.06,3.92-11.42,6.03-13.02,1.17-.88,2.65-.94,3.73-1.85,1.44.9-.35,2.51-.88,3.32Z"/>
  <path d="M835.87,883.3c1.58,1.39-1.77,2.03-2.16,2.97-.78,1.91-2.7,14.33-5.73,13.76-1.99-.37-.22-6.95.24-8.11.52-1.32,5.92-10.13,7.65-8.62Z"/>
  <path d="M630.38,891.65c-1.71.23-.7-1.88-.51-2.83,1.17-5.75,5.89-15.07,9.81-19.48l-3.23,11.18-6.07,11.13Z"/>
  <path d="M1106.44,877.72c-4.49,3.47-5.62,11.84-12.09,11.14,3.36-4.51,4.97-12.39,12.09-11.14Z"/>
  <path d="M150.62,857.26c1.65,1.48-10.09,10.43-11.15,9.29-1.25-3.63,9.18-11.06,11.15-9.29Z"/>
  <path d="M1746.13,873.07c-.98,3.08-3.51,5.4-5.12,8.35s-2.54,6.47-3.93,9.07c-.98,1.84-.94,1.22-3.03,1.16,2.42-5.46,6.77-10.67,6.52-16.72l1.38,1.85,4.18-3.71Z"/>
  <path d="M1178.97,888.87c0-2.13.72-6.16,1.8-7.86.47-.74,1.57.52,2.33-.46s1.89-5.1,2.51-5.5l1.71.81,1.86-4.65c-1.22,6.34-5.9,13.12-10.21,17.66Z"/>
  <path d="M1177.1,878.65c1.17,3.25-1.3,7.65-3.16,10.33-.78,1.13-.04,2.27-2.41,1.74l.71-5.33,4.86-6.75Z"/>
  <path d="M222.22,874c-3.4,3.83-2.65,11.74-8.36,13l3.8-9.59,4.57-3.42Z"/>
  <path d="M597.85,889.8c-2.15-2.32,6.74-13.43,5.87-6.7-.39,3.01-1.88,7.25-5.87,6.7Z"/>
  <path d="M1420.7,874.93c-.34,5.41-3.11,8.46-8.35,9.29-.63-.63,4.37-6.7,5.09-7.45.97-1,1.64-2.17,3.26-1.84Z"/>
  <polygon points="1395.6 881.44 1392.4 888.98 1391.29 889.62 1388.17 888.86 1392.03 881.59 1395.6 881.44"/>
  <path d="M1087.85,883.28c-.66-.49,6.58-8.25,8.36-8.36-.41,4.74-2.84,9.54-8.36,8.36Z"/>
  <path d="M105.99,881.44c-.53,3.24-1.28,7.43-5.1,8.36-3.73-.7,2.82-10.45,5.1-8.36Z"/>
  <path d="M1064.61,889.8c-.68-4.37,3.64-6.91,6.49-9.29-.24,4.37-1.36,8.94-6.49,9.29Z"/>
  <path d="M127.64,876.12c.59-.57,2.48-.51,3.45-1.2.45,2.7-3.08,8.96-6.01,8.37-.65-.13-2.15-1.97-.97-2.81,2.78-.43,2.81-3.66,3.54-4.36Z"/>
  <path d="M1663.38,881.44c-1.67,2.99-1.79,9.1-6.52,7.91-2.65-2.59.35-2.03.94-2.99,1.43-2.37,1.6-5.48,5.58-4.92Z"/>
  <path d="M621.09,873.07c1.15,1.06-6.19,7.72-7.42,8.36-1.69-2.92,5.67-9.98,7.42-8.36Z"/>
  <polygon points="1688.48 875.86 1684.3 883.29 1683.83 881.44 1679.19 883.28 1683.98 877.79 1686.62 878.65 1688.48 875.86"/>
  <path d="M1106.44,869.35c1.14,5.23-2.7,6.27-6.49,8.36-.92-1,5.33-9.75,6.49-8.36Z"/>
  <path d="M141.33,869.36l-.03,4.62c-3.52-.89-2.7,3.62-6.48,2.8.08-1.89,4.52-8.6,6.51-7.42Z"/>
  <path d="M668.52,892.59c1.42-4.93,2.29-11.58,6.49-14.88-1.98,4.73-3.19,11.03-6.49,14.88Z"/>
  <path d="M138.54,864.71c-3.02,3.77-4.95,7.35-10.23,5.56.23-1.44,1.73-1.75,2.8-2.3,2.25-1.16,5.07-2.21,7.42-3.26Z"/>
  <path d="M825.66,886.08c-.16-3.62,2.58-8.15,5.56-10.23-.17,3.7-2.74,7.89-5.56,10.23Z"/>
  <path d="M1134.33,871.2c.97-3.58,3.38-6.39,6.5-8.36.78,2.06-5.19,9.62-6.5,8.36Z"/>
  <path d="M1751.72,884.22l3.7-8.84-1.85-1.38,3.7-.94c.77,1.04-3.57,10.34-5.56,11.16Z"/>
  <path d="M69.74,898.17c-1.58-1.97,7.72-7.75,9.28-9.3,1.46,1.61-7.99,8.49-9.28,9.3Z"/>
  <path d="M1366.78,890.74l-8.36,8.36c.02-3.28,5.28-8.04,8.36-8.36Z"/>
  <path d="M1626.2,899.1c1.47-3.6,4.78-7.84,8.35-9.3,1.12,1.21-6.97,8.44-8.35,9.3Z"/>
  <path d="M575.53,890.74l-7.43,7.43c-.28-3.64,4.11-7.06,7.43-7.43Z"/>
  <path d="M1535.98,886.08l-1.83-.45c2.25-2.75,1.91-7.24,5.56-8.84l-3.73,9.29Z"/>
  <path d="M1137.3,882.51c.18-.29,3.75-3.22,4.46-4.79l-2.77,7.92c-1.16.92-2.57-1.72-1.69-3.13Z"/>
  <path d="M1138.98,887.02c-.9,2.84-1.25,6.74-4.64,7.43-.6-.76,2.05-8.09,4.64-7.43Z"/>
  <path d="M1168.73,890.73l-2.65-2.17,6.84-12.69c2.18,1.68.94,1.37.09,2.85-2.15,3.73-4.83,7.42-4.28,12.01Z"/>
  <path d="M1830.74,884.23c-1.35,2.17-.01,6.66-3.71,6.49.3-1.6,1.14-6.98,3.71-6.49Z"/>
  <path d="M1152,871.21c-.65,2.96-3.72,4.25-6.51,4.63.32-1.58,5.45-5.57,6.51-4.63Z"/>
  <path d="M791.25,890.73c.03-2.41.25-6.25,2.77-7.44-.33,2.27-.38,6.3-2.77,7.44Z"/>
  <path d="M1408.61,882.36l-2.31,5.56c-3.15-2.12.52-4.43,2.31-5.56Z"/>
  <polygon points="1503.46 885.16 1501.14 890.73 1500.66 885.78 1503.46 885.16"/>
  <path d="M1085.05,883.3c1.05.85-3.3,4.22-3.71,4.64-.32-2.98.12-5.2,3.71-4.64Z"/>
  <polygon points="721.51 874 717.8 879.57 718.71 874.62 721.51 874"/>
  <path d="M642.36,874.8l-2.66-.33,9.28-10.7c-.51,4.68-6.14,5.79-6.62,11.03Z"/>
  <path d="M631.84,869.88c-.18.31-1.77,2.32-2.36,2.25l-.03-3.08,3.73-2.49c.43,1.57-.7,2.24-1.34,3.33Z"/>
  <path d="M628.52,875.85l-2.32,5.56c-2.58-1.41,1.08-4.77,2.32-5.56Z"/>
  <polygon points="618.27 869.33 615.52 868.89 619.23 863.77 618.27 869.33"/>
  <polygon points="1109.21 874.92 1107.38 874.47 1111.08 868.42 1109.21 874.92"/>
  <polygon points="1928.36 887.94 1927.88 885.13 1932.08 875.86 1928.36 887.94"/>
  <path d="M1711.73,878.65l-3.71,6.49c-.42-1.03,1.91-8.28,3.71-6.49Z"/>
  <path d="M1971.15,887.01c-.49-1.11,2.12-6.44,2.77-5.58.12,2.06-.69,4.77-2.77,5.58Z"/>
  <path d="M467.69,887.01c-.49-1.11,2.12-6.44,2.77-5.58.12,2.06-.69,4.77-2.77,5.58Z"/>
  <path d="M610.87,871.2l3.71-4.64c.45,1.62-2.34,5.76-3.71,4.64Z"/>
  <path d="M116.23,884.23l2.78-.94c.49,3.86-2.51,5.01-2.78.94Z"/>
  <path d="M1116.59,866.48l-4.57,1c.38-2.02,4.14-.71,3.72-3.7l.84,2.7Z"/>
  <path d="M1167.82,876.78c-.1-1.66,1.04-3.97,2.77-4.65.1,1.66-1.04,3.97-2.77,4.65Z"/>
  <path d="M1675.35,885.98l-2.66,1.03c-.38-1.77,1.19-2.51,2.32-3.71l.34,2.68Z"/>
  <path d="M172.02,885.15c-.1-1.66,1.04-3.97,2.77-4.65.1,1.66-1.04,3.97-2.77,4.65Z"/>
  <polygon points="716.86 882.37 714.08 886.08 715.02 882.37 716.86 882.37"/>
  <polygon points="1096.21 893.51 1092.5 892.13 1093.89 890.75 1096.21 893.51"/>
</svg>