<?xml version="1.0" encoding="UTF-8"?>
<svg id="Layer_1" data-name="Layer 1" xmlns="http://www.w3.org/2000/svg" viewBox="0 0 225.86 208.59">
  <defs>
    <style>
      .cls-1 {
        fill: #fff;
      }
    </style>
  </defs>
  <path class="cls-1" d="M154.79,60.22c-.63.86,2.61,1.86,3.19,2.05,15.55,5.22,35.91,2.34,48.32-8.68,4.24-3.76,6.2-7.7,9.55-11.84,2.33-2.88,5.4-5.31,7.8-8.15,1.28-11.04,2.57-22.18,2.12-33.29-.52-.69-.56-.1-.97.21-16.52,12.2-17.54,29.63-29.19,44.31-7.71,9.71-18.5,14.84-30.91,15.37-3.44.15-6.63-.86-9.91,0ZM0,8.88v29.36c0,1.51,2.55,3.83,3.68,4.87,14.5,13.32,36.16,19.6,55.63,18.66.49-.02,1.66.31,1.36-.58-22.63-4.29-40.32-24.21-53.21-42.08-2.03-2.82-4.28-7.18-6.36-9.59-.35-.4-.37-.81-1.1-.65ZM204.18,8.89c-14.9,1.41-29.28,3.87-42.65,10.82-10.25,5.33-22.71,15.58-28.19,25.86-2.34,4.38.05,3.03,2.97,2.97,9.61-.2,19.65.37,29.18-.38,15.04-1.19,26.44-13.38,33.32-25.79.95-1.7,6.34-12.52,5.38-13.48ZM94.89,51.67c.74-.74-1.99-7.69-2.54-8.93-7.6-17.22-23.19-26.97-41.33-30.23-6.6-1.18-17.86-2.16-24.4-1.31-4.55.59,1.21,7.52,2.23,9.48,1.36,2.61,2.16,5.23,3.89,7.78,11.41,16.82,29.7,17.77,47.89,20.55,4.79.73,9.48,2.13,14.26,2.66ZM102.98,63.06c-24.34,1.82-39.53,15.49-60.06,25.5-11.18,5.45-22.75,10.26-34.65,13.97l-.84.74c-.44,1.36,2.26,7.29,2.99,8.95,9.61,21.48,28.64,46.58,43.64,64.87,6.17,7.52,14.62,18.26,21.58,24.7,8.34,7.72,23.9,6.94,34.63,6.63,23.51-.67,31.39-3.73,46.45-21.61,12.36-14.67,24.33-32.44,35.33-48.29,4.74-6.83,18.68-25.5,19.81-32.69.16-.99.34-2.65-.26-3.44-4.38-1.6-9.13-2.47-13.65-3.86-10.97-3.36-22.51-7.96-32.25-14.03-6.3-3.93-11.56-9.27-18.16-12.56-13.35-6.65-29.66-9.99-44.56-8.88ZM45.89,70.34c-14.1,4.53-30.39,7.14-43.94-.39.17,5.05,1.01,10.11,2.21,15.07l.4.49c10.2,2.57,20.64-1.74,29.39-6.7,4.15-2.35,8.55-5.11,11.94-8.47ZM217.4,70.33c-4.33.91-8.47,2.44-12.83,3.31-9.64,1.92-21.11,2.66-30.15-1.75-.79.88.65.9,1.38,1.34,9.75,5.92,21.19,13.49,32.57,15.27,1.34.21,4.8.96,5.47-.15.56-.93,1.48-5.68,1.82-7.13s2.2-10.43,1.74-10.89Z"/>
  <path class="cls-1" d="M102.98,63.06c14.9-1.11,31.21,2.23,44.56,8.88,6.6,3.29,11.86,8.63,18.16,12.56,9.74,6.07,21.28,10.67,32.25,14.03,4.51,1.38,9.27,2.25,13.65,3.86.6.79.42,2.45.26,3.44-1.14,7.19-15.08,25.86-19.81,32.69-11,15.85-22.97,33.61-35.33,48.29-15.06,17.88-22.94,20.94-46.45,21.61-10.73.31-26.29,1.09-34.63-6.63-6.96-6.44-15.41-17.18-21.58-24.7-14.99-18.29-34.03-43.39-43.64-64.87-.74-1.65-3.44-7.58-2.99-8.95l.84-.74c11.89-3.71,23.46-8.51,34.65-13.97,20.53-10.01,35.73-23.68,60.06-25.5Z"/>
  <path class="cls-1" d="M94.89,51.67c-4.78-.53-9.47-1.93-14.26-2.66-18.19-2.78-36.48-3.73-47.89-20.55-1.73-2.55-2.54-5.16-3.89-7.78-1.02-1.96-6.77-8.89-2.23-9.48,6.54-.85,17.8.12,24.4,1.31,18.14,3.26,33.74,13.01,41.33,30.23.55,1.25,3.29,8.19,2.54,8.93Z"/>
  <path class="cls-1" d="M204.18,8.89c.96.96-4.43,11.78-5.38,13.48-6.88,12.41-18.29,24.6-33.32,25.79-9.53.75-19.57.17-29.18.38-2.91.06-5.3,1.41-2.97-2.97,5.49-10.28,17.95-20.53,28.19-25.86,13.37-6.95,27.76-9.41,42.65-10.82Z"/>
  <path class="cls-1" d="M154.79,60.22c3.28-.87,6.47.14,9.91,0,12.41-.53,23.2-5.66,30.91-15.37,11.65-14.68,12.67-32.11,29.19-44.31.41-.3.45-.9.97-.21.45,11.11-.84,22.25-2.12,33.29-2.4,2.84-5.47,5.27-7.8,8.15-3.35,4.14-5.31,8.08-9.55,11.84-12.41,11.02-32.77,13.89-48.32,8.68-.58-.19-3.82-1.19-3.19-2.05Z"/>
  <path class="cls-1" d="M0,8.88c.73-.16.75.24,1.1.65,2.08,2.41,4.33,6.76,6.36,9.59,12.89,17.87,30.58,37.79,53.21,42.08.3.89-.87.56-1.36.58-19.46.94-41.13-5.34-55.63-18.66-1.13-1.04-3.68-3.36-3.68-4.87V8.88Z"/>
  <path class="cls-1" d="M217.4,70.33c.46.47-1.42,9.47-1.74,10.89s-1.26,6.2-1.82,7.13c-.67,1.11-4.13.36-5.47.15-11.38-1.78-22.82-9.35-32.57-15.27-.72-.44-2.16-.46-1.38-1.34,9.04,4.41,20.51,3.68,30.15,1.75,4.36-.87,8.5-2.4,12.83-3.31Z"/>
  <path class="cls-1" d="M45.89,70.34c-3.39,3.36-7.79,6.13-11.94,8.47-8.75,4.96-19.19,9.27-29.39,6.7l-.4-.49c-1.2-4.96-2.03-10.02-2.21-15.07,13.56,7.53,29.85,4.92,43.94.39Z"/>
</svg>